<svg width="78" height="78" viewBox="0 0 78 78" fill="none" xmlns="http://www.w3.org/2000/svg">
<rect x="24" y="21" width="33" height="35" fill="white"/>
<path fill-rule="evenodd" clip-rule="evenodd" d="M39 78C57.3848 78 66.5772 78 72.2886 72.2885C78 66.5773 78 57.3846 78 39C78 20.6152 78 11.4228 72.2886 5.71143C66.5772 -4.76837e-07 57.3848 0 39 0C20.6154 0 11.4227 -4.76837e-07 5.71155 5.71143C-1.90735e-06 11.4228 0 20.6152 0 39C0 57.3846 -1.90735e-06 66.5773 5.71155 72.2885C11.4227 78 20.6154 78 39 78ZM39 24.375C37.3846 24.375 36.075 25.6846 36.075 27.3V36.075H27.3C25.6846 36.075 24.375 37.3846 24.375 39C24.375 40.6154 25.6846 41.925 27.3 41.925H36.075V50.7C36.075 52.3154 37.3846 53.625 39 53.625C40.6154 53.625 41.925 52.3154 41.925 50.7V41.925H50.7C52.3154 41.925 53.625 40.6154 53.625 39C53.625 37.3846 52.3154 36.075 50.7 36.075H41.925V27.3C41.925 25.6846 40.6154 24.375 39 24.375Z" fill="#00935B"/>
</svg>
