<svg width="10" height="18" viewBox="0 0 10 18" fill="none" xmlns="http://www.w3.org/2000/svg">
<path d="M0 8.66211C0.00976563 9.00391 0.136719 9.29687 0.400391 9.56055L7.99805 16.9922C8.22266 17.207 8.48633 17.3242 8.80859 17.3242C9.46289 17.3242 9.9707 16.8164 9.9707 16.1621C9.9707 15.8496 9.84375 15.5566 9.61914 15.332L2.7832 8.66211L9.61914 1.99219C9.84375 1.76758 9.9707 1.48438 9.9707 1.16211C9.9707 0.507812 9.46289 0 8.80859 0C8.49609 0 8.22266 0.117188 7.99805 0.332031L0.400391 7.77344C0.126953 8.02734 0 8.32031 0 8.66211Z" fill="#292561"/>
</svg>
