<svg width="110" height="110" viewBox="0 0 110 110" fill="none" xmlns="http://www.w3.org/2000/svg">
<path d="M5 38.3333H105M27.2222 5V16.1111M82.7778 5V16.1111M21.6667 55H32.7778M49.4444 55H60.5556M77.2222 55H88.3333M21.6667 71.6667H32.7778M49.4444 71.6667H60.5556M77.2222 71.6667H88.3333M21.6667 88.3333H32.7778M49.4444 88.3333H60.5556M77.2222 88.3333H88.3333M22.7778 105H87.2222C93.445 105 96.5567 105 98.9333 103.789C101.024 102.724 102.724 101.024 103.789 98.9333C105 96.5567 105 93.445 105 87.2222V33.8889C105 27.6661 105 24.5547 103.789 22.1779C102.724 20.0872 101.024 18.3874 98.9333 17.3222C96.5567 16.1111 93.445 16.1111 87.2222 16.1111H22.7778C16.555 16.1111 13.4436 16.1111 11.0668 17.3222C8.97606 18.3874 7.27628 20.0872 6.21106 22.1779C5 24.5547 5 27.6661 5 33.8889V87.2222C5 93.445 5 96.5567 6.21106 98.9333C7.27628 101.024 8.97606 102.724 11.0668 103.789C13.4436 105 16.5549 105 22.7778 105Z" stroke="#8E8E8E" stroke-width="9.99" stroke-linecap="round"/>
</svg>
