<svg width="98" height="102" viewBox="0 0 98 102" fill="none" xmlns="http://www.w3.org/2000/svg">
<path d="M49.1339 21.0135H36.0009C33.9766 21.0135 32.3354 22.6547 32.3354 24.679C32.3354 26.7033 33.9766 28.3444 36.0009 28.3444H49.1339C51.1582 28.3444 52.7994 26.7033 52.7994 24.679C52.7994 22.6547 51.1582 21.0135 49.1339 21.0135Z" fill="#333333"/>
<path d="M49.1339 36.2456H36.0009C33.9766 36.2456 32.3354 37.8867 32.3354 39.911C32.3354 41.9353 33.9766 43.5765 36.0009 43.5765H49.1339C51.1582 43.5765 52.7994 41.9353 52.7994 39.911C52.7994 37.8867 51.1582 36.2456 49.1339 36.2456Z" fill="#333333"/>
<path d="M64.5449 61.9103V65.4799H66.4307C68.7177 65.4799 68.7177 64.1117 68.7177 63.6621C68.7177 63.2284 68.7177 61.91 66.4307 61.91H64.5449V61.9103Z" fill="#333333"/>
<path d="M92.3865 55.1654H86.4216V18.0103C86.4216 17.049 86.0404 16.1275 85.3601 15.4484L70.973 1.06029C70.2927 0.38145 69.3724 0 68.4111 0H25.1136C21.1909 0 18 3.19113 18 7.11389V83.3783C18 87.3013 21.1911 90.4924 25.1136 90.4924H79.3077C83.2302 90.4924 86.4213 87.3011 86.4213 83.3783V76.0357H92.3862C95.4865 76.0357 98 73.5224 98 70.422V60.7789C98.0002 57.6789 95.4867 55.1654 92.3865 55.1654ZM78.6963 82.5717H25.725V7.92078H63.3784V18.5691C63.3784 21.1484 65.4687 23.2382 68.047 23.2382H78.6963V55.1654H60.57C57.4695 55.1654 54.9562 57.6789 54.9562 60.7791V70.4222C54.9562 73.5227 57.4695 76.0359 60.57 76.0359H78.6963V82.5717ZM71.0368 63.6621C71.0368 66.2135 69.2715 67.7987 66.4305 67.7987H64.5448V69.9924C64.5448 70.5583 64.0861 71.0179 63.5197 71.0179H63.2516C62.6849 71.0179 62.226 70.5583 62.226 69.9924V60.6171C62.226 60.0512 62.6849 59.5915 63.2516 59.5915H66.4305C69.2717 59.5913 71.0368 61.1508 71.0368 63.6621ZM76.8514 71.0179H73.1627C72.596 71.0179 72.1371 70.5583 72.1371 69.9924V60.6171C72.1371 60.0512 72.5958 59.5915 73.1627 59.5915H76.8514C80.0643 59.5915 82.6782 62.1573 82.6782 65.3118C82.6782 68.4582 80.0645 71.0179 76.8514 71.0179ZM91.5498 60.8845C91.5498 61.4514 91.0909 61.9101 90.5242 61.9101H86.359V64.3666H89.9074C90.4736 64.3666 90.933 64.8248 90.933 65.3917V65.6603C90.933 66.2262 90.4736 66.6859 89.9074 66.6859H86.359V69.9921C86.359 70.5581 85.9004 71.0177 85.3337 71.0177H85.0659C84.4989 71.0177 84.0403 70.5581 84.0403 69.9921V60.6169C84.0403 60.0509 84.4989 59.5913 85.0659 59.5913H90.5242C91.0909 59.5913 91.5498 60.0509 91.5498 60.6169V60.8845Z" fill="#333333"/>
<path d="M76.852 61.9103H74.4565V68.6992H76.852C78.7862 68.6992 80.3599 67.1788 80.3599 65.3119C80.3601 63.4361 78.7864 61.9103 76.852 61.9103Z" fill="#333333"/>
<path d="M18 101.045L35.3205 71.0454H0.679491L18 101.045ZM15 57L15 74.0454H21L21 57H15Z" fill="#00935B"/>
</svg>
