<svg width="164" height="171" viewBox="0 0 164 171" fill="none" xmlns="http://www.w3.org/2000/svg">
<path d="M81.2848 35.5696H59.0546C55.628 35.5696 52.8501 38.3475 52.8501 41.7741C52.8501 45.2006 55.628 47.9785 59.0546 47.9785H81.2848C84.7113 47.9785 87.4893 45.2006 87.4893 41.7741C87.4893 38.3475 84.7113 35.5696 81.2848 35.5696Z" fill="#333333"/>
<path d="M81.2848 61.3528H59.0546C55.628 61.3528 52.8501 64.1307 52.8501 67.5573C52.8501 70.9838 55.628 73.7617 59.0546 73.7617H81.2848C84.7113 73.7617 87.4893 70.9838 87.4893 67.5573C87.4893 64.1307 84.7113 61.3528 81.2848 61.3528Z" fill="#333333"/>
<path d="M107.371 104.795V110.838H110.563C114.434 110.838 114.434 108.522 114.434 107.761C114.434 107.026 114.434 104.795 110.563 104.795H107.371V104.795Z" fill="#333333"/>
<path d="M154.498 93.3782H144.401V30.4859C144.401 28.8587 143.756 27.2989 142.605 26.1494L118.252 1.79475C117.1 0.64568 115.542 0 113.915 0H40.6257C33.9857 0 28.5845 5.40162 28.5845 12.0417V141.134C28.5845 147.775 33.9861 153.176 40.6257 153.176H132.36C138.999 153.176 144.401 147.774 144.401 141.134V128.705H154.498C159.746 128.705 164 124.451 164 119.203V102.88C164.001 97.6329 159.746 93.3782 154.498 93.3782ZM131.325 139.769H41.6606V13.4075H105.396V31.4319C105.396 35.7978 108.935 39.3352 113.299 39.3352H131.325V93.3782H100.642C95.3943 93.3782 91.1401 97.6329 91.1401 102.881V119.203C91.1401 124.452 95.3943 128.706 100.642 128.706H131.325V139.769ZM118.36 107.761C118.36 112.079 115.371 114.763 110.563 114.763H107.371V118.476C107.371 119.434 106.594 120.212 105.635 120.212H105.182C104.222 120.212 103.446 119.434 103.446 118.476V102.606C103.446 101.648 104.222 100.87 105.182 100.87H110.563C115.372 100.87 118.36 103.51 118.36 107.761ZM128.202 120.212H121.958C120.999 120.212 120.222 119.434 120.222 118.476V102.606C120.222 101.648 120.999 100.87 121.958 100.87H128.202C133.64 100.87 138.065 105.213 138.065 110.553C138.065 115.879 133.641 120.212 128.202 120.212ZM153.082 103.059C153.082 104.019 152.305 104.795 151.346 104.795H144.296V108.953H150.302C151.26 108.953 152.038 109.729 152.038 110.688V111.143C152.038 112.101 151.26 112.879 150.302 112.879H144.296V118.475C144.296 119.433 143.519 120.211 142.56 120.211H142.107C141.147 120.211 140.371 119.433 140.371 118.475V102.606C140.371 101.648 141.147 100.87 142.107 100.87H151.346C152.305 100.87 153.082 101.648 153.082 102.606V103.059Z" fill="#333333"/>
<path d="M128.203 104.795H124.148V116.287H128.203C131.477 116.287 134.14 113.713 134.14 110.553C134.141 107.378 131.477 104.795 128.203 104.795Z" fill="#333333"/>
<path d="M29 171L57.8675 121H0.132487L29 171ZM24 97L24 126H34L34 97H24Z" fill="#00935B"/>
</svg>
