<svg width="20" height="20" viewBox="0 0 20 20" fill="none" xmlns="http://www.w3.org/2000/svg">
<path d="M7.65625 0.625C7.34545 0.625 7.04738 0.748465 6.82761 0.968234C6.60784 1.188 6.48438 1.48607 6.48438 1.79688V6.48438H1.79688C1.48607 6.48438 1.188 6.60784 0.968234 6.82761C0.748465 7.04738 0.625 7.34545 0.625 7.65625V12.3438C0.625 12.6546 0.748465 12.9526 0.968234 13.1724C1.188 13.3922 1.48607 13.5156 1.79688 13.5156H6.48438V18.2031C6.48438 18.5139 6.60784 18.812 6.82761 19.0318C7.04738 19.2515 7.34545 19.375 7.65625 19.375H12.3438C12.6546 19.375 12.9526 19.2515 13.1724 19.0318C13.3922 18.812 13.5156 18.5139 13.5156 18.2031V13.5156H18.2031C18.5139 13.5156 18.812 13.3922 19.0318 13.1724C19.2515 12.9526 19.375 12.6546 19.375 12.3438V7.65625C19.375 7.34545 19.2515 7.04738 19.0318 6.82761C18.812 6.60784 18.5139 6.48438 18.2031 6.48438H13.5156V1.79688C13.5156 1.48607 13.3922 1.188 13.1724 0.968234C12.9526 0.748465 12.6546 0.625 12.3438 0.625H7.65625Z" fill="#870000"/>
</svg>
