<svg width="45" height="34" viewBox="0 0 45 34" fill="none" xmlns="http://www.w3.org/2000/svg">
<g opacity="0.25" clip-path="url(#clip0_133_869)">
<path d="M11.3004 15.7034C11.0772 15.0073 14.8128 4.24415 24.7772 0.94219C35.7272 -2.69506 44.4661 5.18635 44.4661 5.18635C47.3973 14.15 37.2896 33.8387 34.9565 34C32.0884 34.1995 14.2358 24.8878 11.3004 15.7034Z" fill="#898989"/>
<path d="M6.60421 27.239C6.11989 27.2348 0.0679486 22.4941 0.000564412 15.3087C-0.0710313 7.40182 6.69266 3.39532 6.69266 3.39532C12.9636 3.39532 23.3787 14.1967 23.0038 15.7416C22.5448 17.6727 13.0099 27.29 6.60421 27.239Z" fill="#8E8E8E"/>
<path d="M23.004 15.7416C23.223 14.8546 19.7316 10.7505 15.5412 7.5249C12.4247 11.3574 11.1696 15.279 11.3002 15.7034C12.0793 18.1353 13.9113 20.5757 16.2361 22.8506C19.858 20.0622 22.7429 16.7772 23.004 15.7416Z" fill="#565656"/>
</g>
<defs>
<clipPath id="clip0_133_869">
<rect width="45" height="34" fill="white"/>
</clipPath>
</defs>
</svg>
