<svg width="50" height="37.85" viewBox="0 0 50 37.85" fill="none" xmlns="http://www.w3.org/2000/svg" id="svg8327" preserveAspectRatio="xMidYMid"><g clip-path="url(#clip0_321_6)" id="g7701"><path d="M12.537 17.29c-0.248 -0.766 3.897 -12.617 14.953 -16.252 12.15 -4.005 21.846 4.673 21.846 4.673C52.589 15.579 41.374 37.257 38.785 37.435c-3.182 0.22 -22.991 -10.033 -26.248 -20.145Z" fill="#898989" id="path8098"/><path d="M7.327 29.991C6.79 29.986 0.075 24.766 0 16.855 -0.079 8.15 7.425 3.738 7.425 3.738c6.958 0 18.514 11.893 18.098 13.593 -0.509 2.126 -11.089 12.715 -18.196 12.659Z" fill="#8E8E8E" id="path1692"/><path d="M25.523 17.332c0.243 -0.977 -3.631 -5.495 -8.28 -9.047C13.785 12.505 12.393 16.822 12.537 17.29c0.864 2.678 2.897 5.364 5.477 7.869 4.019 -3.07 7.22 -6.687 7.509 -7.827Z" fill="#565656" id="path9724"/><animateTransform attributeName="transform" attributeType="auto" type="scale" values="1 1;0.9 0.9;1 1" calcMode="spline" keyTimes="0;0.5000000000000001;1" keySplines=".25 0 .75 1;.25 0 .75 1" dur="2s" begin="0s" repeatCount="indefinite" additive="sum" accumulate="none" fill="freeze" id="animateTransform2441"/></g><defs id="defs9608"><clipPath id="clip0_321_6"><path width="106.85" height="80.11" fill="white" id="rect4864" d="M0 0H49.93V37.435H0V0z"/></clipPath></defs></svg>