<svg width="600" height="174" viewBox="0 0 600 174" fill="none" xmlns="http://www.w3.org/2000/svg">
<g clip-path="url(#clip0_295_2)">
<path d="M490.998 50.4475C490.276 48.2115 502.359 13.6346 534.588 3.027C570.005 -8.65769 598.284 16.6614 598.284 16.6614C607.724 45.4437 575.045 108.694 567.526 109.212C558.222 109.866 500.479 79.9524 490.998 50.4475Z" fill="#91298C"/>
<path d="M475.81 87.5056C474.23 87.5056 454.655 72.2896 454.451 49.1793C454.219 23.7784 476.096 11.0029 476.096 11.0029C496.379 11.0029 530.052 45.7025 528.853 50.6654C527.368 56.7737 496.529 87.6693 475.81 87.5056Z" fill="#00935B"/>
<path d="M528.853 50.5701C529.562 47.6523 518.256 34.536 504.715 24.1738C494.635 36.4448 490.562 49.1384 490.998 50.461C493.518 58.2735 499.444 66.1133 506.949 73.4213C518.678 64.4499 528.05 53.8969 528.853 50.5701Z" fill="#292561"/>
<path d="M20.4327 160.191V162.918C20.4378 164.251 20.1785 165.572 19.6699 166.804C19.1588 168.013 18.4292 169.118 17.5177 170.062C16.6108 171.015 15.5284 171.784 14.3302 172.325C13.0946 172.889 11.7514 173.178 10.3934 173.171C9.18282 173.154 7.97912 172.985 6.81091 172.666C5.5814 172.34 4.43783 171.749 3.45994 170.935C2.41047 170.046 1.56091 168.945 0.967153 167.703C0.272649 166.144 -0.058089 164.447 4.61761e-06 162.74V138.403C-0.0219726 137.004 0.23264 135.613 0.749204 134.313C1.22167 133.104 1.93547 132.004 2.84696 131.081C3.78302 130.163 4.88881 129.436 6.10258 128.941C7.43626 128.408 8.86209 128.143 10.2981 128.164C11.6428 128.115 12.9828 128.349 14.2313 128.852C15.4797 129.354 16.6086 130.114 17.5449 131.081C18.4732 132.059 19.204 133.207 19.6971 134.463C20.2126 135.821 20.4712 137.264 20.46 138.717V141.198H14.1394V139.098C14.1626 137.934 13.7931 136.796 13.0906 135.867C12.7582 135.426 12.3248 135.073 11.8268 134.835C11.3289 134.598 10.7812 134.484 10.23 134.504C9.62305 134.421 9.00525 134.515 8.44992 134.774C7.89459 135.032 7.42503 135.445 7.09697 135.962C6.53863 137.112 6.27194 138.381 6.32053 139.657V162.25C6.28385 163.386 6.57722 164.508 7.16508 165.481C7.50357 165.952 7.95983 166.326 8.48816 166.566C9.01649 166.805 9.59836 166.901 10.1755 166.844C10.6381 166.843 11.0976 166.769 11.5377 166.626C12.0342 166.483 12.4973 166.242 12.8999 165.917C13.3129 165.54 13.6344 165.074 13.8398 164.554C14.1049 163.858 14.2299 163.117 14.2076 162.372V160.204L20.4327 160.191Z" fill="#91298C"/>
<path d="M30.1996 139.071C30.1693 137.449 30.49 135.84 31.1395 134.353C31.7045 133.032 32.5506 131.851 33.6186 130.89C34.6084 130.018 35.7548 129.343 36.9968 128.9C38.8524 128.228 40.8524 128.058 42.7945 128.408C44.7367 128.757 46.5522 129.614 48.0578 130.89C49.0863 131.852 49.9109 133.011 50.4824 134.299C51.1273 135.786 51.4432 137.396 51.4087 139.016V162.359C51.4581 164.003 51.1417 165.637 50.4824 167.144C49.913 168.397 49.0869 169.517 48.0578 170.43C47.0564 171.328 45.8906 172.022 44.6251 172.475C42.1667 173.403 39.4552 173.403 36.9968 172.475C35.7419 172.034 34.5918 171.338 33.6186 170.43C32.5566 169.535 31.7093 168.412 31.1395 167.144C30.4755 165.639 30.1545 164.004 30.1996 162.359V139.071ZM36.5337 162.413C36.4811 163.038 36.5675 163.666 36.7865 164.253C37.0056 164.84 37.3519 165.371 37.8005 165.808C38.6499 166.504 39.7135 166.884 40.811 166.884C41.9084 166.884 42.972 166.504 43.8214 165.808C44.27 165.371 44.6164 164.84 44.8354 164.253C45.0544 163.666 45.1408 163.038 45.0882 162.413V139.071C45.1387 138.449 45.0514 137.823 44.8324 137.239C44.6134 136.654 44.2682 136.125 43.8214 135.69C42.972 134.994 41.9084 134.614 40.811 134.614C39.7135 134.614 38.6499 134.994 37.8005 135.69C37.3537 136.125 37.0085 136.654 36.7895 137.239C36.5705 137.823 36.4832 138.449 36.5337 139.071V162.413Z" fill="#91298C"/>
<path d="M62.9464 172.789V128.6H69.0217L78.557 155.228H78.6932V128.6H85.0137V172.789H79.0746L69.4712 146.229H69.3486V172.789H62.9464Z" fill="#91298C"/>
<path d="M96.7149 172.789V128.6H102.79L112.325 155.228H112.448V128.6H118.782V172.789H112.802L103.131 146.229H103.008V172.789H96.7149Z" fill="#91298C"/>
<path d="M130.674 172.789V128.6H149.527V134.558H136.995V147.524H147.892V153.482H136.995V166.462H149.527V172.789H130.674Z" fill="#91298C"/>
<path d="M179.917 160.191V162.918C179.924 164.252 179.66 165.574 179.14 166.804C178.629 168.01 177.904 169.113 177.002 170.062C176.09 171.015 175.003 171.784 173.801 172.326C172.566 172.891 171.222 173.179 169.864 173.171C168.626 173.161 167.394 172.992 166.2 172.666C164.973 172.343 163.834 171.751 162.862 170.935C161.826 170.054 160.99 168.962 160.41 167.731C159.712 166.163 159.381 164.456 159.443 162.741V138.403C159.421 137.004 159.676 135.614 160.193 134.313C160.666 133.101 161.385 132.001 162.304 131.081C163.235 130.157 164.342 129.429 165.56 128.941C166.889 128.409 168.31 128.145 169.741 128.164C171.088 128.116 172.43 128.351 173.68 128.854C174.93 129.356 176.062 130.115 177.002 131.081C177.922 132.063 178.647 133.211 179.14 134.463C179.667 135.819 179.93 137.262 179.917 138.717V141.198H173.583V139.099C173.606 137.934 173.236 136.796 172.534 135.867C172.202 135.427 171.768 135.073 171.27 134.835C170.772 134.598 170.224 134.484 169.673 134.504C169.066 134.421 168.449 134.515 167.893 134.774C167.338 135.032 166.868 135.445 166.54 135.963C165.987 137.113 165.725 138.382 165.777 139.658V162.25C165.737 163.385 166.025 164.507 166.608 165.481C166.948 165.951 167.404 166.325 167.932 166.564C168.46 166.803 169.042 166.9 169.619 166.845C170.081 166.843 170.541 166.769 170.981 166.626C171.477 166.481 171.94 166.24 172.343 165.917C172.747 165.536 173.064 165.071 173.269 164.554C173.535 163.858 173.66 163.117 173.637 162.372V160.205L179.917 160.191Z" fill="#91298C"/>
<path d="M194.179 172.789V134.612H186.85V128.6H207.814V134.558H200.499V172.734L194.179 172.789Z" fill="#91298C"/>
<path d="M216.805 172.789V128.6H235.657V134.558H223.139V147.524H234.036V153.482H223.139V166.462H235.657V172.789H216.805Z" fill="#91298C"/>
<path d="M245.955 172.789V128.6H255.327C258.964 128.6 261.716 129.581 263.609 131.572C265.613 133.909 266.625 136.938 266.429 140.012V160.681C266.429 164.826 265.426 167.88 263.419 169.844C262.243 170.882 260.873 171.678 259.388 172.183C257.904 172.689 256.333 172.894 254.769 172.789H245.955ZM252.29 134.612V166.885H255.205C255.896 166.955 256.593 166.869 257.246 166.633C257.9 166.397 258.491 166.017 258.978 165.522C259.824 164.298 260.219 162.819 260.095 161.336V140.012C260.187 138.571 259.819 137.139 259.046 135.921C258.556 135.41 257.954 135.02 257.287 134.783C256.62 134.547 255.907 134.469 255.205 134.558L252.29 134.612Z" fill="#91298C"/>
<path d="M318.028 141.321H311.694V139.889C311.724 138.567 311.37 137.264 310.673 136.14C310.29 135.594 309.769 135.16 309.163 134.882C308.558 134.604 307.889 134.492 307.226 134.558C306.495 134.526 305.77 134.696 305.129 135.049C304.586 135.353 304.12 135.778 303.766 136.29C303.427 136.855 303.196 137.48 303.085 138.13C302.958 138.837 302.894 139.553 302.895 140.271C302.886 140.995 302.918 141.718 302.99 142.439C303.047 142.981 303.204 143.508 303.453 143.993C303.719 144.465 304.092 144.867 304.543 145.166C305.15 145.574 305.804 145.908 306.491 146.161L311.327 148.083C312.58 148.521 313.753 149.161 314.8 149.979C315.641 150.67 316.336 151.523 316.843 152.487C317.319 153.567 317.631 154.711 317.77 155.882C317.948 157.311 318.035 158.751 318.028 160.191C318.039 161.933 317.852 163.672 317.47 165.372C317.151 166.842 316.54 168.233 315.672 169.462C314.771 170.636 313.598 171.573 312.253 172.189C310.629 172.892 308.872 173.232 307.104 173.184C305.638 173.196 304.185 172.918 302.827 172.366C301.553 171.864 300.394 171.108 299.421 170.144C298.463 169.186 297.691 168.058 297.146 166.817C296.595 165.524 296.312 164.133 296.315 162.727V160.368H302.636V162.25C302.626 163.381 302.99 164.483 303.671 165.385C304.09 165.874 304.622 166.253 305.22 166.49C305.818 166.728 306.464 166.816 307.104 166.749C307.968 166.793 308.832 166.635 309.624 166.285C310.204 165.977 310.678 165.502 310.986 164.922C311.336 164.284 311.536 163.576 311.572 162.849C311.64 162.031 311.667 161.132 311.667 160.123C311.676 159.167 311.635 158.211 311.545 157.259C311.494 156.634 311.328 156.024 311.054 155.46C310.756 155.005 310.361 154.623 309.896 154.342C309.292 153.989 308.664 153.68 308.016 153.414L303.48 151.547C301.192 150.771 299.259 149.198 298.032 147.115C297.045 144.944 296.578 142.572 296.669 140.189C296.657 138.591 296.886 137 297.351 135.472C297.759 134.062 298.455 132.753 299.394 131.627C300.292 130.527 301.429 129.646 302.718 129.05C304.228 128.37 305.871 128.04 307.526 128.082C309.006 128.069 310.472 128.366 311.831 128.954C313.085 129.508 314.23 130.284 315.209 131.245C316.115 132.134 316.834 133.194 317.325 134.365C317.817 135.536 318.07 136.792 318.069 138.062L318.028 141.321Z" fill="#91298C"/>
<path d="M328.94 172.789V128.6H347.792V134.558H335.26V147.524H346.158V153.482H335.26V166.462H347.792V172.789H328.94Z" fill="#91298C"/>
<path d="M357.831 172.789V128.6H363.92L373.456 155.228H373.578V128.6H379.899V172.789H373.946L364.275 146.229H364.152V172.789H357.831Z" fill="#91298C"/>
<path d="M412.291 141.321H405.93V139.889C405.96 138.566 405.605 137.264 404.908 136.14C404.525 135.594 404.005 135.16 403.399 134.882C402.793 134.604 402.125 134.492 401.462 134.558C400.731 134.526 400.005 134.696 399.364 135.049C398.822 135.353 398.356 135.778 398.002 136.289C397.663 136.855 397.432 137.48 397.321 138.13C397.194 138.837 397.13 139.553 397.13 140.271C397.13 141.13 397.13 141.866 397.226 142.439C397.283 142.981 397.44 143.508 397.689 143.993C397.958 144.462 398.331 144.863 398.779 145.165C399.388 145.571 400.041 145.905 400.726 146.161L405.576 148.083C406.805 148.529 407.954 149.169 408.981 149.978C409.823 150.67 410.517 151.523 411.025 152.487C411.506 153.564 411.818 154.71 411.951 155.882C412.136 157.311 412.223 158.75 412.21 160.191C412.221 161.933 412.033 163.672 411.651 165.372C411.332 166.842 410.721 168.233 409.853 169.462C408.953 170.636 407.779 171.573 406.434 172.189C404.811 172.892 403.053 173.232 401.285 173.184C399.819 173.196 398.366 172.918 397.008 172.366C395.736 171.861 394.578 171.105 393.602 170.144C392.647 169.186 391.88 168.058 391.341 166.817C390.779 165.527 390.491 164.134 390.497 162.727V160.368H396.831V162.249C396.822 163.378 397.18 164.479 397.852 165.385C398.272 165.873 398.803 166.253 399.401 166.49C399.999 166.727 400.645 166.816 401.285 166.749C402.15 166.793 403.013 166.635 403.805 166.285C404.385 165.977 404.86 165.502 405.167 164.922C405.517 164.284 405.717 163.576 405.753 162.849C405.821 162.031 405.848 161.131 405.848 160.122C405.858 159.167 405.817 158.211 405.726 157.259C405.675 156.634 405.509 156.024 405.235 155.459C404.943 155.005 404.552 154.623 404.091 154.341C403.482 153.99 402.849 153.68 402.198 153.414L397.757 151.683C395.469 150.907 393.535 149.334 392.308 147.252C391.321 145.081 390.855 142.709 390.946 140.325C390.94 138.728 391.17 137.138 391.627 135.608C392.036 134.199 392.731 132.889 393.67 131.763C394.569 130.663 395.706 129.782 396.994 129.186C398.504 128.507 400.148 128.176 401.803 128.218C403.283 128.204 404.749 128.501 406.107 129.091C407.362 129.644 408.506 130.42 409.485 131.381C410.391 132.27 411.111 133.331 411.602 134.501C412.093 135.672 412.346 136.929 412.346 138.198L412.291 141.321Z" fill="#91298C"/>
<path d="M421.159 139.071C421.125 137.45 421.441 135.841 422.086 134.354C422.662 133.055 423.507 131.893 424.565 130.945C425.558 130.079 426.704 129.404 427.943 128.955C429.796 128.277 431.795 128.099 433.739 128.439C435.683 128.779 437.503 129.624 439.017 130.891C440.046 131.849 440.867 133.01 441.429 134.299C442.078 135.786 442.399 137.395 442.368 139.017V162.359C442.414 164.004 442.092 165.639 441.429 167.145C440.868 168.4 440.046 169.52 439.017 170.43C438.011 171.328 436.841 172.022 435.571 172.476C433.113 173.403 430.401 173.403 427.943 172.476C426.691 172.028 425.542 171.332 424.565 170.43C423.507 169.531 422.66 168.409 422.086 167.145C421.426 165.638 421.11 164.003 421.159 162.359V139.071ZM427.48 162.413C427.427 163.038 427.514 163.666 427.733 164.253C427.952 164.84 428.298 165.371 428.747 165.808C429.596 166.504 430.66 166.884 431.757 166.884C432.854 166.884 433.918 166.504 434.767 165.808C435.216 165.371 435.562 164.84 435.781 164.253C436 163.666 436.087 163.038 436.034 162.413V139.071C436.085 138.449 435.997 137.823 435.778 137.239C435.559 136.654 435.214 136.125 434.767 135.69C433.918 134.994 432.854 134.614 431.757 134.614C430.66 134.614 429.596 134.994 428.747 135.69C428.3 136.125 427.955 136.654 427.736 137.239C427.517 137.823 427.429 138.449 427.48 139.071V162.413Z" fill="#91298C"/>
<path d="M452.912 172.789V128.6H463.142C470.597 128.6 474.321 132.922 474.312 141.566C474.373 143.84 473.96 146.101 473.099 148.206C472.219 150.115 470.722 151.671 468.849 152.623L475.66 172.789H468.958L463.074 153.919H459.287V172.789H452.912ZM459.232 134.612V148.383H462.828C463.759 148.431 464.69 148.272 465.553 147.92C466.191 147.626 466.731 147.152 467.106 146.556C467.465 145.892 467.696 145.166 467.787 144.416C468.023 142.459 468.023 140.482 467.787 138.525C467.689 137.746 467.434 136.995 467.037 136.317C466.247 135.158 464.763 134.585 462.569 134.585L459.232 134.612Z" fill="#91298C"/>
<path d="M505.996 141.321H499.662V139.889C499.692 138.567 499.337 137.264 498.64 136.14C498.258 135.596 497.74 135.164 497.137 134.886C496.534 134.608 495.868 134.495 495.207 134.558C494.472 134.525 493.741 134.694 493.096 135.049C492.556 135.357 492.091 135.781 491.734 136.29C491.394 136.856 491.163 137.48 491.053 138.131C490.93 138.837 490.871 139.554 490.876 140.271C490.876 141.13 490.876 141.866 490.957 142.439C491.011 142.984 491.173 143.512 491.434 143.993C491.694 144.464 492.063 144.866 492.51 145.166C493.122 145.574 493.781 145.908 494.472 146.161L499.308 148.084C500.536 148.53 501.686 149.169 502.713 149.979C503.554 150.671 504.249 151.523 504.756 152.488C505.242 153.564 505.559 154.709 505.696 155.883C505.87 157.312 505.952 158.751 505.941 160.191C505.952 161.934 505.765 163.672 505.383 165.372C505.076 166.846 504.464 168.24 503.585 169.462C502.687 170.639 501.512 171.576 500.166 172.189C498.547 172.892 496.794 173.231 495.03 173.185C493.56 173.196 492.102 172.919 490.739 172.367C489.467 171.861 488.309 171.105 487.334 170.144C486.379 169.187 485.612 168.058 485.073 166.817C484.51 165.527 484.223 164.134 484.228 162.727V160.368H490.562V162.25C490.553 163.378 490.912 164.479 491.584 165.386C492.005 165.875 492.539 166.255 493.139 166.492C493.74 166.73 494.389 166.818 495.03 166.749C495.891 166.795 496.75 166.636 497.537 166.286C498.117 165.978 498.591 165.503 498.899 164.922C499.253 164.286 499.458 163.577 499.498 162.85C499.553 162.032 499.58 161.123 499.58 160.123C499.589 159.167 499.548 158.211 499.457 157.26C499.407 156.634 499.24 156.024 498.967 155.46C498.678 155.003 498.286 154.62 497.823 154.342C497.213 153.99 496.581 153.68 495.929 153.415L491.407 151.547C489.115 150.779 487.179 149.204 485.958 147.116C484.965 144.947 484.498 142.573 484.596 140.189C484.59 138.592 484.819 137.002 485.277 135.472C485.697 134.067 486.391 132.76 487.32 131.627C488.219 130.527 489.355 129.646 490.644 129.05C492.155 128.372 493.798 128.041 495.453 128.082C496.933 128.068 498.399 128.365 499.757 128.955C501.014 129.505 502.159 130.281 503.135 131.245C504.041 132.134 504.761 133.195 505.252 134.365C505.743 135.536 505.996 136.793 505.996 138.062V141.321Z" fill="#91298C"/>
</g>
<defs>
<clipPath id="clip0_295_2">
<rect width="600" height="173.171" fill="white"/>
</clipPath>
</defs>
</svg>