<svg width="227" height="65" viewBox="0 0 227 65" fill="none" xmlns="http://www.w3.org/2000/svg">
<g clip-path="url(#clip0_251_2)">
<path d="M185.761 18.9355C185.488 18.0962 190.059 5.11773 202.252 1.13615C215.652 -3.24972 226.351 6.25386 226.351 6.25386C229.922 17.0573 217.559 40.7984 214.714 40.9929C211.194 41.2385 189.348 30.0103 185.761 18.9355Z" fill="#91298C"/>
<path d="M180.015 32.8455C179.417 32.8455 172.011 27.1341 171.934 18.4596C171.846 8.9253 180.123 4.13 180.123 4.13C187.797 4.13 200.536 17.1546 200.083 19.0174C199.521 21.3101 187.853 32.9069 180.015 32.8455Z" fill="#00935B"/>
<path d="M200.083 18.9816C200.351 17.8864 196.073 12.9631 190.951 9.07367C187.137 13.6796 185.596 18.4442 185.761 18.9406C186.714 21.8731 188.956 24.8157 191.796 27.5588C196.233 24.1914 199.779 20.2303 200.083 18.9816Z" fill="#292561"/>
<path d="M7.7304 60.1279V61.1515C7.73231 61.6518 7.63422 62.1476 7.4418 62.61C7.24844 63.064 6.9724 63.4787 6.62754 63.8332C6.28444 64.1909 5.87495 64.4793 5.4216 64.6827C4.95415 64.8944 4.44596 65.0026 3.93221 65C3.47419 64.9938 3.01879 64.9302 2.57682 64.8106C2.11165 64.6881 1.679 64.4663 1.30904 64.1607C0.911985 63.827 0.59057 63.4137 0.36593 62.9478C0.103176 62.3625 -0.0219534 61.7254 2.53728e-05 61.085V51.9499C-0.00828935 51.4245 0.0880391 50.9028 0.283473 50.4145C0.462222 49.9609 0.732277 49.5481 1.07712 49.2016C1.43127 48.8569 1.84962 48.584 2.30883 48.3982C2.81341 48.198 3.35285 48.0989 3.89614 48.1065C4.4049 48.0881 4.91187 48.1761 5.38418 48.3647C5.8565 48.5534 6.28362 48.8385 6.63784 49.2016C6.98905 49.5687 7.26554 49.9996 7.45211 50.4708C7.64711 50.9807 7.74497 51.5222 7.74071 52.0676V52.999H5.34945V52.2109C5.35822 51.7738 5.21843 51.3465 4.95262 50.998C4.82689 50.8326 4.6629 50.6997 4.47451 50.6107C4.28612 50.5216 4.07889 50.4789 3.87037 50.4862C3.64074 50.4553 3.40701 50.4905 3.19691 50.5875C2.98681 50.6846 2.80916 50.8395 2.68504 51.0338C2.47381 51.4651 2.37291 51.9414 2.39129 52.4207V60.9007C2.37741 61.3272 2.48841 61.7485 2.71081 62.1136C2.83888 62.2905 3.01149 62.4309 3.21138 62.5207C3.41126 62.6105 3.6314 62.6466 3.84975 62.6254C4.02477 62.6248 4.19863 62.5971 4.36511 62.5435C4.55297 62.4896 4.72816 62.3992 4.88047 62.2774C5.03675 62.136 5.15839 61.9609 5.23607 61.7656C5.33639 61.5045 5.38368 61.2262 5.37522 60.9468V60.1331L7.7304 60.1279Z" fill="#91298C"/>
<path d="M11.4255 52.2006C11.4141 51.5918 11.5354 50.9878 11.7811 50.4299C11.9949 49.934 12.315 49.4904 12.7191 49.13C13.0935 48.8027 13.5273 48.5491 13.9972 48.3828C14.6992 48.1306 15.4558 48.0669 16.1906 48.1981C16.9254 48.3293 17.6123 48.6507 18.1819 49.13C18.571 49.491 18.883 49.9261 19.0992 50.4094C19.3432 50.9677 19.4627 51.5717 19.4497 52.1801V60.9417C19.4683 61.5588 19.3486 62.1724 19.0992 62.738C18.8838 63.2083 18.5713 63.6285 18.1819 63.9713C17.803 64.3082 17.362 64.5689 16.8832 64.739C15.9531 65.0871 14.9272 65.0871 13.9972 64.739C13.5224 64.5734 13.0872 64.312 12.7191 63.9713C12.3173 63.6352 11.9967 63.2137 11.7811 62.738C11.5299 62.1728 11.4085 61.5592 11.4255 60.9417V52.2006ZM13.8219 60.9621C13.8021 61.1965 13.8347 61.4323 13.9176 61.6527C14.0005 61.873 14.1315 62.0724 14.3012 62.2364C14.6226 62.4975 15.025 62.6402 15.4402 62.6402C15.8554 62.6402 16.2578 62.4975 16.5791 62.2364C16.7489 62.0724 16.8799 61.873 16.9628 61.6527C17.0456 61.4323 17.0783 61.1965 17.0584 60.9621V52.2006C17.0775 51.9671 17.0445 51.7322 16.9616 51.5128C16.8788 51.2934 16.7482 51.0949 16.5791 50.9314C16.2578 50.6703 15.8554 50.5277 15.4402 50.5277C15.025 50.5277 14.6226 50.6703 14.3012 50.9314C14.1322 51.0949 14.0016 51.2934 13.9187 51.5128C13.8359 51.7322 13.8028 51.9671 13.8219 52.2006V60.9621Z" fill="#91298C"/>
<path d="M23.8147 64.8567V48.2702H26.1132L29.7207 58.2651H29.7722V48.2702H32.1635V64.8567H29.9165L26.2833 54.8874H26.2369V64.8567H23.8147Z" fill="#91298C"/>
<path d="M36.5905 64.8567V48.2702H38.889L42.4965 58.2651H42.5428V48.2702H44.9393V64.8567H42.6768L39.0178 54.8874H38.9714V64.8567H36.5905Z" fill="#91298C"/>
<path d="M49.4384 64.8567V48.2702H56.5709V50.5066H51.8296V55.3736H55.9525V57.61H51.8296V62.4821H56.5709V64.8567H49.4384Z" fill="#91298C"/>
<path d="M68.0686 60.1279V61.1515C68.0712 61.6524 67.9713 62.1486 67.7748 62.61C67.5813 63.0627 67.3072 63.477 66.9657 63.8332C66.6207 64.1909 66.2095 64.4793 65.7546 64.6827C65.2873 64.8948 64.779 65.0031 64.2652 65C63.7969 64.9964 63.3309 64.9327 62.8789 64.8106C62.4149 64.6891 61.9837 64.4672 61.6163 64.1607C61.2243 63.8301 60.908 63.42 60.6887 62.958C60.4244 62.3696 60.2992 61.7289 60.3227 61.0849V51.9498C60.3144 51.4245 60.4108 50.9028 60.6062 50.4145C60.7853 49.9598 61.0573 49.5468 61.405 49.2016C61.7573 48.8547 62.1762 48.5815 62.6367 48.3981C63.1397 48.1987 63.6773 48.0995 64.2189 48.1064C64.7283 48.0886 65.2359 48.1768 65.709 48.3655C66.182 48.5541 66.6101 48.8389 66.9657 49.2016C67.3137 49.5702 67.5882 50.0008 67.7748 50.4708C67.974 50.9797 68.0737 51.5216 68.0686 52.0675V52.999H65.6722V52.2108C65.6809 51.7737 65.5411 51.3465 65.2753 50.9979C65.1496 50.8326 64.9856 50.6997 64.7972 50.6106C64.6088 50.5216 64.4016 50.4789 64.1931 50.4862C63.9635 50.4553 63.7297 50.4904 63.5196 50.5875C63.3095 50.6846 63.1319 50.8394 63.0078 51.0338C62.7985 51.4656 62.6994 51.9419 62.7192 52.4207V60.9007C62.7037 61.3267 62.8129 61.748 63.0335 62.1136C63.162 62.2901 63.3346 62.4302 63.5344 62.52C63.7342 62.6098 63.9542 62.6461 64.1725 62.6254C64.3475 62.6247 64.5214 62.5971 64.6878 62.5435C64.8754 62.489 65.0505 62.3986 65.2032 62.2774C65.3562 62.1342 65.4758 61.9595 65.5536 61.7656C65.654 61.5044 65.7012 61.2262 65.6928 60.9468V60.1331L68.0686 60.1279Z" fill="#91298C"/>
<path d="M73.4644 64.8567V50.5271H70.6918V48.2702H78.6231V50.5066H75.8557V64.8362L73.4644 64.8567Z" fill="#91298C"/>
<path d="M82.0245 64.8567V48.2702H89.1571V50.5066H84.421V55.3736H88.5438V57.61H84.421V62.4821H89.1571V64.8567H82.0245Z" fill="#91298C"/>
<path d="M93.0531 64.8567V48.2702H96.5988C97.9748 48.2702 99.0158 48.6387 99.7322 49.3859C100.49 50.2632 100.873 51.4 100.799 52.5537V60.3122C100.799 61.868 100.419 63.0143 99.66 63.7513C99.2152 64.1412 98.6969 64.4396 98.1352 64.6293C97.5735 64.8191 96.9794 64.8964 96.3875 64.8567H93.0531ZM95.4495 50.5271V62.6407H96.5524C96.8138 62.6672 97.0778 62.6349 97.3249 62.5463C97.572 62.4577 97.7958 62.3151 97.9799 62.129C98.3002 61.6698 98.4496 61.1144 98.4025 60.5578V52.5537C98.4372 52.0131 98.2983 51.4756 98.0057 51.0184C97.8204 50.8264 97.5925 50.6802 97.3402 50.5913C97.0878 50.5024 96.818 50.4735 96.5524 50.5066L95.4495 50.5271Z" fill="#91298C"/>
<path d="M120.321 53.045H117.924V52.5077C117.936 52.0112 117.801 51.5222 117.538 51.1003C117.393 50.8955 117.196 50.7326 116.967 50.6283C116.738 50.524 116.485 50.482 116.234 50.5066C115.957 50.4947 115.683 50.5584 115.44 50.6909C115.235 50.8052 115.059 50.9644 114.925 51.1566C114.797 51.369 114.709 51.6033 114.667 51.8475C114.619 52.1126 114.595 52.3815 114.595 52.651C114.592 52.9227 114.604 53.1943 114.631 53.4647C114.653 53.6683 114.712 53.8661 114.806 54.0481C114.907 54.2251 115.048 54.376 115.219 54.4882C115.448 54.6416 115.696 54.767 115.956 54.8618L117.785 55.5834C118.259 55.7477 118.703 55.988 119.099 56.2948C119.418 56.5544 119.68 56.8746 119.872 57.2364C120.052 57.6416 120.17 58.0711 120.223 58.5107C120.29 59.0472 120.323 59.5873 120.321 60.1279C120.325 60.782 120.254 61.4345 120.109 62.0727C119.989 62.6246 119.757 63.1467 119.429 63.608C119.089 64.0488 118.644 64.4002 118.136 64.6315C117.521 64.8955 116.857 65.023 116.188 65.0051C115.633 65.0096 115.083 64.9052 114.569 64.698C114.087 64.5095 113.649 64.2257 113.281 63.8639C112.918 63.5043 112.627 63.0809 112.42 62.6151C112.212 62.1299 112.105 61.6075 112.106 61.0798V60.1945H114.497V60.9007C114.493 61.3252 114.631 61.7391 114.889 62.0778C115.048 62.261 115.249 62.4033 115.475 62.4924C115.701 62.5816 115.946 62.6149 116.188 62.5896C116.515 62.6063 116.841 62.5467 117.141 62.4156C117.36 62.3 117.54 62.1217 117.656 61.9038C117.789 61.6645 117.864 61.3985 117.878 61.1259C117.904 60.8188 117.914 60.4811 117.914 60.1024C117.918 59.7436 117.902 59.3848 117.868 59.0276C117.849 58.793 117.786 58.5639 117.682 58.3521C117.57 58.1815 117.42 58.0381 117.244 57.9324C117.015 57.8003 116.778 57.684 116.533 57.5844L114.817 56.8833C113.951 56.5921 113.22 56.0019 112.755 55.2201C112.382 54.4051 112.205 53.5149 112.24 52.6203C112.235 52.0205 112.322 51.4234 112.498 50.8495C112.652 50.3206 112.915 49.8292 113.271 49.4063C113.611 48.9935 114.041 48.6628 114.528 48.4391C115.099 48.1841 115.721 48.06 116.347 48.0757C116.907 48.0709 117.462 48.1825 117.976 48.4033C118.451 48.611 118.884 48.9023 119.254 49.263C119.597 49.5966 119.869 49.9948 120.055 50.4342C120.241 50.8735 120.336 51.3453 120.336 51.8219L120.321 53.045Z" fill="#91298C"/>
<path d="M124.449 64.8567V48.2702H131.581V50.5066H126.84V55.3736H130.963V57.61H126.84V62.4821H131.581V64.8567H124.449Z" fill="#91298C"/>
<path d="M135.38 64.8567V48.2702H137.683L141.291 58.2651H141.337V48.2702H143.728V64.8567H141.476L137.817 54.8874H137.771V64.8567H135.38Z" fill="#91298C"/>
<path d="M155.984 53.0451H153.577V52.5077C153.588 52.0113 153.454 51.5223 153.19 51.1003C153.045 50.8955 152.848 50.7327 152.619 50.6283C152.39 50.524 152.137 50.4821 151.886 50.5067C151.61 50.4947 151.335 50.5584 151.093 50.6909C150.888 50.8052 150.711 50.9645 150.577 51.1566C150.449 51.369 150.362 51.6033 150.32 51.8475C150.272 52.1127 150.247 52.3816 150.248 52.651C150.248 52.9734 150.248 53.2498 150.284 53.4647C150.305 53.6683 150.365 53.8661 150.459 54.0481C150.561 54.224 150.702 54.3746 150.871 54.4883C151.102 54.6404 151.349 54.7658 151.608 54.8618L153.443 55.5834C153.908 55.7508 154.343 55.991 154.731 56.2948C155.049 56.5544 155.312 56.8746 155.504 57.2365C155.686 57.6408 155.805 58.0706 155.855 58.5108C155.925 59.047 155.958 59.5873 155.953 60.128C155.957 60.7821 155.886 61.4345 155.741 62.0727C155.621 62.6246 155.389 63.1468 155.061 63.608C154.72 64.0488 154.276 64.4002 153.768 64.6316C153.153 64.8956 152.488 65.0231 151.819 65.0051C151.265 65.0096 150.715 64.9053 150.201 64.6981C149.72 64.5083 149.282 64.2246 148.913 63.8639C148.552 63.5045 148.261 63.0809 148.057 62.6152C147.845 62.131 147.736 61.6081 147.738 61.0799V60.1945H150.134V60.9007C150.131 61.3244 150.267 61.7376 150.521 62.0778C150.679 62.261 150.88 62.4033 151.107 62.4925C151.333 62.5816 151.577 62.6149 151.819 62.5896C152.147 62.6063 152.473 62.5467 152.773 62.4156C152.992 62.3 153.172 62.1217 153.288 61.9038C153.42 61.6645 153.496 61.3985 153.51 61.1259C153.536 60.8189 153.546 60.4811 153.546 60.1024C153.549 59.7436 153.534 59.3848 153.5 59.0277C153.48 58.793 153.417 58.5639 153.314 58.3521C153.203 58.1816 153.055 58.0382 152.881 57.9325C152.651 57.8004 152.411 57.6841 152.165 57.5845L150.485 56.9345C149.619 56.6433 148.887 56.0531 148.423 55.2713C148.05 54.4564 147.873 53.5661 147.908 52.6715C147.906 52.0719 147.992 51.4752 148.166 50.9007C148.32 50.3718 148.583 49.8804 148.939 49.4575C149.279 49.0447 149.709 48.714 150.196 48.4903C150.767 48.2353 151.389 48.1112 152.015 48.1269C152.575 48.1217 153.13 48.2333 153.644 48.4545C154.119 48.6622 154.552 48.9535 154.922 49.3143C155.265 49.6478 155.537 50.046 155.723 50.4854C155.909 50.9248 156.004 51.3965 156.004 51.8731L155.984 53.0451Z" fill="#91298C"/>
<path d="M159.339 52.2006C159.326 51.5922 159.445 50.9882 159.689 50.4299C159.907 49.9424 160.227 49.5064 160.627 49.1505C161.003 48.8252 161.436 48.5719 161.905 48.4033C162.606 48.149 163.363 48.0822 164.098 48.2098C164.833 48.3373 165.522 48.6547 166.095 49.13C166.484 49.4899 166.795 49.9254 167.007 50.4094C167.253 50.9673 167.374 51.5714 167.363 52.1802V60.9417C167.38 61.5592 167.258 62.1728 167.007 62.738C166.795 63.2091 166.484 63.6296 166.095 63.9714C165.714 64.3083 165.271 64.5689 164.791 64.739C163.861 65.0871 162.835 65.0871 161.905 64.739C161.431 64.5709 160.997 64.3098 160.627 63.9714C160.227 63.6338 159.906 63.2127 159.689 62.738C159.44 62.1724 159.32 61.5588 159.339 60.9417V52.2006ZM161.73 60.9622C161.71 61.1965 161.743 61.4324 161.825 61.6527C161.908 61.8731 162.039 62.0724 162.209 62.2365C162.53 62.4975 162.933 62.6402 163.348 62.6402C163.763 62.6402 164.166 62.4975 164.487 62.2365C164.657 62.0724 164.788 61.8731 164.871 61.6527C164.954 61.4324 164.986 61.1965 164.966 60.9622V52.2006C164.985 51.9671 164.952 51.7322 164.87 51.5128C164.787 51.2934 164.656 51.0949 164.487 50.9314C164.166 50.6704 163.763 50.5277 163.348 50.5277C162.933 50.5277 162.53 50.6704 162.209 50.9314C162.04 51.0949 161.909 51.2934 161.827 51.5128C161.744 51.7322 161.711 51.9671 161.73 52.2006V60.9622Z" fill="#91298C"/>
<path d="M171.352 64.8567V48.2702H175.222C178.043 48.2702 179.451 49.8925 179.448 53.1371C179.471 53.9905 179.315 54.8394 178.989 55.6295C178.656 56.3459 178.09 56.93 177.381 57.2876L179.958 64.8567H177.422L175.196 57.7738H173.763V64.8567H171.352ZM173.743 50.5271V55.696H175.103C175.456 55.7139 175.808 55.6545 176.134 55.522C176.376 55.4116 176.58 55.2338 176.722 55.0102C176.858 54.7609 176.945 54.4883 176.979 54.2067C177.069 53.4725 177.069 52.7302 176.979 51.9959C176.942 51.7033 176.846 51.4212 176.696 51.1668C176.397 50.7318 175.835 50.5169 175.005 50.5169L173.743 50.5271Z" fill="#91298C"/>
<path d="M191.435 53.045H189.039V52.5076C189.05 52.0112 188.916 51.5222 188.652 51.1003C188.508 50.8963 188.311 50.7339 188.083 50.6296C187.855 50.5254 187.603 50.4829 187.353 50.5066C187.075 50.494 186.799 50.5577 186.555 50.6909C186.35 50.8066 186.174 50.9656 186.039 51.1566C185.911 51.3689 185.823 51.6033 185.782 51.8475C185.735 52.1128 185.713 52.3817 185.715 52.6509C185.715 52.9734 185.715 53.2497 185.745 53.4647C185.766 53.6692 185.827 53.8676 185.926 54.0481C186.024 54.2249 186.164 54.3758 186.333 54.4882C186.565 54.6415 186.814 54.7669 187.075 54.8618L188.905 55.5834C189.37 55.7508 189.804 55.9909 190.193 56.2948C190.511 56.5544 190.774 56.8745 190.966 57.2364C191.15 57.6405 191.27 58.0703 191.322 58.5107C191.387 59.0473 191.418 59.5874 191.414 60.1279C191.419 60.782 191.348 61.4345 191.203 62.0726C191.087 62.6261 190.855 63.1491 190.523 63.608C190.183 64.0498 189.739 64.4014 189.229 64.6315C188.617 64.8951 187.954 65.0226 187.286 65.0051C186.73 65.0096 186.179 64.9052 185.663 64.698C185.182 64.5082 184.744 64.2246 184.375 63.8638C184.013 63.5044 183.723 63.0809 183.519 62.6151C183.306 62.1309 183.198 61.6081 183.2 61.0798V60.1944H185.596V60.9007C185.593 61.3243 185.728 61.7375 185.983 62.0778C186.142 62.2614 186.344 62.4039 186.571 62.493C186.798 62.5822 187.044 62.6153 187.286 62.5895C187.612 62.6068 187.937 62.5472 188.235 62.4155C188.454 62.3 188.634 62.1217 188.75 61.9038C188.884 61.6649 188.962 61.3989 188.977 61.1259C188.997 60.8188 189.008 60.4776 189.008 60.1023C189.011 59.7435 188.996 59.3848 188.961 59.0276C188.942 58.793 188.879 58.5639 188.776 58.3521C188.666 58.1805 188.518 58.0368 188.343 57.9324C188.112 57.8004 187.873 57.6841 187.627 57.5844L185.916 56.8833C185.048 56.595 184.316 56.004 183.854 55.22C183.478 54.4059 183.302 53.5151 183.339 52.6202C183.336 52.0206 183.423 51.424 183.596 50.8495C183.755 50.3223 184.018 49.8317 184.369 49.4063C184.709 48.9935 185.139 48.6628 185.627 48.4391C186.198 48.1846 186.82 48.0605 187.446 48.0757C188.006 48.0705 188.561 48.1821 189.075 48.4032C189.55 48.6097 189.983 48.9011 190.353 49.263C190.695 49.5966 190.968 49.9948 191.154 50.4341C191.339 50.8735 191.435 51.3453 191.435 51.8219V53.045Z" fill="#91298C"/>
</g>
<defs>
<clipPath id="clip0_251_2">
<rect width="227" height="65" fill="white"/>
</clipPath>
</defs>
</svg>
