<svg width="65" height="50" viewBox="0 0 65 50" fill="none" xmlns="http://www.w3.org/2000/svg">
<path d="M16.4942 23.4313C16.173 22.4371 21.5497 7.06255 35.8917 2.34591C51.6521 -2.84967 64.2362 8.40842 64.2362 8.40842C68.437 21.2064 53.895 49.3304 50.5489 49.5608C46.4087 49.8518 20.7132 36.5506 16.4942 23.4313Z" fill="#91298C"/>
<path d="M9.73542 39.9093C9.03226 39.9093 0.321596 33.1436 0.230671 22.8676C0.127622 11.5732 9.86273 5.89258 9.86273 5.89258C18.8886 5.89258 33.8731 21.3217 33.3397 23.5284C32.679 26.2444 18.9553 39.9821 9.73542 39.9093Z" fill="#00935B"/>
<path d="M33.3397 23.4861C33.6549 22.1887 28.6237 16.3565 22.5983 11.749C18.1127 17.2053 16.3002 22.8495 16.4942 23.4376C17.6156 26.9114 20.2525 30.3973 23.5925 33.6468C28.8116 29.6577 32.982 24.9653 33.3397 23.4861Z" fill="#292561"/>
</svg>