<svg width="300" height="300" viewBox="0 0 300 300" fill="none" xmlns="http://www.w3.org/2000/svg">
<path fill-rule="evenodd" clip-rule="evenodd" d="M173.811 78.3946C169.134 81.6384 163.858 83.9178 158.291 85.0999C152.724 86.2821 146.978 86.3432 141.387 85.2798C135.796 84.2164 130.473 82.0497 125.728 78.9062C120.984 75.7627 116.912 71.7053 113.752 66.9709C110.592 62.2364 108.405 56.9197 107.321 51.331C106.237 45.7422 106.276 39.9935 107.437 34.4201C108.597 28.8467 110.856 23.5604 114.081 18.8696C117.305 14.1788 121.432 10.1775 126.219 7.09914C135.671 0.854011 147.209 -1.39395 158.313 0.846646C169.416 3.08724 179.182 9.63415 185.474 19.0563C191.766 28.4784 194.074 40.0093 191.892 51.1285C189.711 62.2477 183.218 72.0507 173.832 78.3946H173.811ZM161.918 24.9337C159.584 23.2543 156.937 22.0619 154.133 21.4273C151.329 20.7927 148.426 20.7289 145.597 21.2398C142.768 21.7508 140.071 22.8259 137.666 24.4012C135.261 25.9766 133.198 28.0199 131.598 30.4096C129.999 32.7992 128.897 35.4864 128.357 38.311C127.818 41.1356 127.852 44.04 128.458 46.8512C129.063 49.6623 130.228 52.3229 131.883 54.6743C133.538 57.0258 135.649 59.0201 138.09 60.5386C142.807 63.4048 148.447 64.3401 153.836 63.1497C159.224 61.9592 163.946 58.7348 167.018 54.1482C170.089 49.5615 171.273 43.9663 170.323 38.5281C169.373 33.0898 166.362 28.2279 161.918 24.9552V24.9337ZM217.845 25.5768C224.025 21.4183 231.461 19.5456 238.873 20.2812C246.285 21.0167 253.208 24.3145 258.451 29.6067C262.187 33.374 264.942 38.0008 266.474 43.0813C268.006 48.1618 268.268 53.5407 267.238 58.7462C266.208 63.9518 263.917 68.825 260.565 72.9383C257.214 77.0517 252.905 80.2795 248.016 82.3388C242.144 84.7947 235.673 85.4416 229.432 84.1967C223.19 82.9518 217.462 79.8716 212.981 75.3507C209.613 71.9642 207.035 67.8748 205.431 63.3752C203.828 58.8756 203.238 54.077 203.705 49.3229C204.172 44.5688 205.684 39.9767 208.132 35.8752C210.58 31.7738 213.904 28.2644 217.867 25.5982L217.845 25.5768ZM228.131 60.0884C230.142 62.0924 232.868 63.2149 235.707 63.2089C237.112 63.2059 238.504 62.9259 239.801 62.385C241.099 61.8441 242.277 61.0528 243.269 60.0563C244.261 59.0598 245.047 57.8776 245.583 56.5772C246.118 55.2768 246.392 53.8837 246.389 52.4774C246.386 51.0711 246.106 49.6792 245.565 48.3811C245.024 47.083 244.233 45.9042 243.237 44.9119C241.242 42.9047 238.545 41.7517 235.716 41.6965C234.303 41.6936 232.903 41.971 231.598 42.5127C230.292 43.0543 229.107 43.8494 228.111 44.8521C227.115 45.8547 226.327 47.045 225.793 48.3541C225.26 49.6631 224.991 51.065 225.002 52.4787C225.009 55.3335 226.132 58.0509 228.131 60.0884ZM46.9354 246.108H85.7201V267.651H46.9354C40.1458 267.59 33.6575 264.838 28.893 259.999C24.1101 255.142 21.4313 248.596 21.4361 241.778V202.979C18.5511 202.883 15.7156 202.203 13.1007 200.979C10.4859 199.756 8.14594 198.016 6.22219 195.863C4.17805 193.791 2.57379 191.328 1.50588 188.62C0.437982 185.913 -0.0715023 183.017 0.00807147 180.107V133.335C0.0723555 123.217 4.07939 113.549 11.1506 106.368C18.2004 99.2731 27.7359 95.2217 37.7213 95.1574H77.1489C71.8307 101.493 67.8246 108.823 65.3635 116.722H37.7213C33.3723 116.847 29.2344 118.625 26.1502 121.695C23.1208 124.811 21.429 128.988 21.4361 133.335V181.179H42.8641V241.757C42.8144 242.341 42.8837 242.929 43.0679 243.485C43.252 244.041 43.5472 244.555 43.9355 244.994C44.7968 245.659 45.8472 246.035 46.9354 246.065V246.108ZM203.36 106.39C199.853 102.848 195.682 100.035 191.086 98.1106C186.489 96.1866 181.558 95.1903 176.575 95.1788H123.433C113.444 95.2587 103.892 99.289 96.8626 106.39C89.7914 113.571 85.7843 123.238 85.7201 133.356V201.479C85.6898 207.328 87.9156 212.964 91.9342 217.213C93.8603 219.363 96.2008 221.101 98.8151 222.324C101.429 223.547 104.264 224.229 107.148 224.329V274.125C107.128 277.524 107.78 280.893 109.067 284.038C110.355 287.184 112.251 290.043 114.648 292.452C118.505 296.054 123.369 298.39 128.576 299.14H171.432C177.459 298.349 182.981 295.357 186.937 290.739C190.892 286.121 193.002 280.204 192.86 274.125V224.308C195.745 224.212 198.581 223.531 201.195 222.308C203.81 221.085 206.15 219.344 208.074 217.191C210.116 215.123 211.72 212.663 212.788 209.959C213.856 207.256 214.366 204.364 214.288 201.458V133.335C214.303 123.264 210.381 113.607 203.36 106.39ZM192.86 202.529H171.432V274.125C171.411 275.255 170.95 276.332 170.146 277.126C169.781 277.559 169.319 277.901 168.798 278.124C168.278 278.347 167.712 278.446 167.146 278.412H132.647C131.528 278.36 130.468 277.891 129.675 277.098C128.882 276.305 128.414 275.245 128.362 274.125V202.529H107.148V133.335C107.148 128.983 108.841 124.803 111.862 121.695C114.946 118.625 119.084 116.847 123.433 116.722H176.575C179.821 116.779 182.98 117.783 185.663 119.611C188.347 121.439 190.438 124.011 191.681 127.011C192.497 129.018 192.898 131.169 192.86 133.335V202.529ZM253.073 267.63H214.288V246.087H252.858C253.947 246.056 254.997 245.681 255.858 245.015C256.29 244.593 256.627 244.085 256.849 243.523C257.071 242.962 257.171 242.36 257.144 241.757V181.179H278.572V133.335C278.579 128.988 276.887 124.811 273.858 121.695C270.774 118.625 266.636 116.847 262.287 116.722H234.645C232.185 108.823 228.178 101.493 222.859 95.1574H262.287C272.274 95.2489 281.822 99.2774 288.857 106.368C295.929 113.549 299.936 123.217 300 133.335V180.107C300 185.959 297.793 191.576 293.807 195.82C289.822 200.086 284.379 202.636 278.572 202.958V241.757C278.572 248.595 275.894 255.133 271.115 259.977C266.351 264.816 259.862 267.568 253.073 267.63ZM64.2921 20.1321C57.9157 20.1247 51.6824 22.0223 46.391 25.5817C41.0997 29.1411 36.9915 34.2001 34.5929 40.1103C32.1721 46.0184 31.5437 52.5087 32.786 58.7717C34.0282 65.0347 37.0861 70.7933 41.5784 75.3293C46.069 79.86 51.8077 82.9488 58.0616 84.201C64.3155 85.4532 70.8005 84.8121 76.6884 82.3594C82.5762 79.9068 87.5996 75.754 91.1167 70.4316C94.6339 65.1092 96.4851 58.8588 96.4341 52.4787C96.4341 43.9044 93.0484 35.6731 87.0057 29.6067C84.0303 26.6086 80.4919 24.2281 76.594 22.6022C72.696 20.9762 68.5153 20.1368 64.2921 20.1321ZM64.2921 63.2609C62.8788 63.2638 61.4791 62.9864 60.1737 62.4448C58.8683 61.9031 57.6832 61.108 56.6869 60.1054C55.6906 59.1027 54.9029 57.9125 54.3693 56.6034C53.8356 55.2943 53.5667 53.8924 53.5781 52.4787C53.5836 49.6319 54.7122 46.9024 56.7184 44.8834C58.7246 42.8644 61.4464 41.7191 64.2921 41.6965C67.1291 41.7465 69.8349 42.9005 71.8353 44.9136C73.8356 46.9267 74.9731 49.6404 75.0061 52.4787C75.0005 55.3255 73.872 58.0551 71.8657 60.0741C69.8595 62.0931 67.1377 63.2383 64.2921 63.2609Z" fill="#8E8E8E"/>
</svg>
