<svg width="18" height="10" viewBox="0 0 18 10" fill="none" xmlns="http://www.w3.org/2000/svg">
<path d="M8.66211 9.9707C9.00391 9.96094 9.29688 9.83398 9.56055 9.57031L16.9922 1.97266C17.207 1.74805 17.3242 1.48438 17.3242 1.16211C17.3242 0.507812 16.8164 0 16.1621 0C15.8496 0 15.5566 0.126953 15.332 0.351563L8.66211 7.1875L1.99219 0.351563C1.76758 0.126953 1.48438 0 1.16211 0C0.507812 0 0 0.507813 0 1.16211C0 1.47461 0.117188 1.74805 0.332031 1.97266L7.77344 9.57031C8.02734 9.84375 8.32031 9.9707 8.66211 9.9707Z" fill="#333333"/>
</svg>
