<svg width="800" height="800" viewBox="0 0 800 800" fill="none" xmlns="http://www.w3.org/2000/svg">
<path d="M554.317 463.03L569.5 447.933L534.244 412.477L519.064 427.573L554.317 463.03ZM620.487 441.61L684.17 476.23L708.05 432.303L644.367 397.683L620.487 441.61ZM696.43 545.037L649.077 592.12L684.33 627.577L731.684 580.493L696.43 545.037ZM620.224 607.28C571.894 611.783 446.854 607.77 311.473 473.157L276.218 508.613C423.954 655.51 564.564 662.683 624.864 657.063L620.224 607.28ZM311.473 473.157C182.427 344.843 161.051 236.922 158.39 190.102L108.47 192.939C111.819 251.866 138.288 371.467 276.218 508.613L311.473 473.157ZM357.317 267.147L366.877 257.641L331.624 222.185L322.063 231.691L357.317 267.147ZM374.487 136.467L332.455 80.3203L292.429 110.285L334.46 166.432L374.487 136.467ZM191.088 68.0997L138.768 120.123L174.023 155.579L226.343 103.556L191.088 68.0997ZM339.69 249.419C322.063 231.691 322.039 231.715 322.015 231.739C322.007 231.747 321.983 231.771 321.967 231.787C321.934 231.82 321.901 231.854 321.867 231.888C321.8 231.957 321.73 232.029 321.658 232.103C321.513 232.253 321.361 232.415 321.2 232.59C320.878 232.939 320.525 233.338 320.147 233.789C319.392 234.691 318.535 235.801 317.635 237.129C315.831 239.792 313.865 243.313 312.197 247.741C308.792 256.776 306.967 268.687 309.255 283.435C313.73 312.278 333.594 350.377 384.477 400.97L419.73 365.513C372.114 318.166 360.77 289.353 358.664 275.77C357.66 269.305 358.7 266.124 358.987 265.37C359.16 264.904 359.244 264.857 359.03 265.175C358.924 265.331 358.747 265.574 358.47 265.903C358.334 266.067 358.17 266.253 357.98 266.46C357.884 266.564 357.784 266.673 357.67 266.787C357.617 266.845 357.56 266.903 357.5 266.963C357.47 266.993 357.44 267.023 357.41 267.054C357.397 267.069 357.374 267.093 357.364 267.1C357.34 267.124 357.317 267.147 339.69 249.419ZM384.477 400.97C435.377 451.58 473.654 471.277 502.544 475.71C517.307 477.973 529.21 476.167 538.24 472.803C542.667 471.153 546.194 469.21 548.86 467.423C550.194 466.53 551.307 465.68 552.21 464.93C552.664 464.557 553.064 464.207 553.414 463.887C553.59 463.727 553.754 463.577 553.904 463.433C553.98 463.36 554.05 463.29 554.12 463.223C554.154 463.19 554.187 463.157 554.22 463.123C554.237 463.107 554.264 463.083 554.27 463.077C554.294 463.053 554.317 463.03 536.69 445.3C519.064 427.573 519.087 427.55 519.11 427.527C519.117 427.52 519.14 427.497 519.157 427.48C519.187 427.45 519.217 427.42 519.247 427.39C519.31 427.333 519.367 427.277 519.424 427.22C519.54 427.11 519.65 427.01 519.754 426.913C519.96 426.727 520.147 426.563 520.314 426.43C520.64 426.157 520.884 425.983 521.034 425.88C521.344 425.673 521.28 425.767 520.787 425.95C519.97 426.253 516.7 427.297 510.127 426.287C496.35 424.177 467.334 412.843 419.73 365.513L384.477 400.97ZM332.455 80.3203C298.478 34.934 231.666 27.7523 191.088 68.0997L226.343 103.556C244.065 85.9333 275.541 87.727 292.429 110.285L332.455 80.3203ZM158.39 190.102C157.734 178.565 163.025 166.513 174.023 155.579L138.768 120.123C120.857 137.932 106.777 163.142 108.47 192.939L158.39 190.102ZM649.077 592.12C639.917 601.23 630.097 606.36 620.224 607.28L624.864 657.063C649.35 654.78 669.414 642.41 684.33 627.577L649.077 592.12ZM366.877 257.641C399.694 225.01 402.134 173.397 374.487 136.467L334.46 166.432C347.91 184.398 345.91 207.979 331.624 222.185L366.877 257.641ZM684.17 476.23C711.43 491.05 715.677 525.897 696.43 545.037L731.684 580.493C776.36 536.07 762.584 461.947 708.05 432.303L684.17 476.23ZM569.5 447.933C582.3 435.207 602.904 432.053 620.487 441.61L644.367 397.683C608.247 378.047 563.42 383.47 534.244 412.477L569.5 447.933Z" fill="#91298C"/>
</svg>
