<svg width="300" height="300" viewBox="0 0 300 300" fill="none" xmlns="http://www.w3.org/2000/svg">
<path d="M149.537 22.1729C155.418 22.1729 161.057 24.509 165.216 28.6673C169.374 32.8255 171.71 38.4653 171.71 44.3459C171.71 50.2265 169.374 55.8663 165.216 60.0245C161.057 64.1828 155.418 66.5188 149.537 66.5188C143.656 66.5188 138.017 64.1828 133.858 60.0245C129.7 55.8663 127.364 50.2265 127.364 44.3459C127.364 38.4653 129.7 32.8255 133.858 28.6673C138.017 24.509 143.656 22.1729 149.537 22.1729ZM149.537 0C137.776 0 126.496 4.67214 118.18 12.9886C109.863 21.3051 105.191 32.5846 105.191 44.3459C105.191 56.1072 109.863 67.3867 118.18 75.7032C126.496 84.0197 137.776 88.6918 149.537 88.6918C161.298 88.6918 172.578 84.0197 180.894 75.7032C189.211 67.3867 193.883 56.1072 193.883 44.3459C193.883 32.5846 189.211 21.3051 180.894 12.9886C172.578 4.67214 161.298 0 149.537 0ZM176.81 99.5565H122.264C111.856 99.5565 101.873 103.691 94.5131 111.051C87.153 118.412 83.0182 128.394 83.0182 138.803V197.339C82.7759 203.501 84.9645 209.51 89.1123 214.073C93.26 218.635 99.0347 221.385 105.191 221.729V273.392C105.191 280.449 107.994 287.217 112.984 292.207C117.974 297.197 124.742 300 131.799 300H167.275C170.845 300.002 174.379 299.286 177.667 297.893C180.954 296.501 183.928 294.461 186.41 291.896C188.893 289.33 190.834 286.292 192.118 282.96C193.402 279.629 194.002 276.074 193.883 272.506V221.729C200.039 221.385 205.814 218.635 209.962 214.073C214.109 209.51 216.298 203.501 216.056 197.339V138.803C216.056 128.394 211.921 118.412 204.561 111.051C197.201 103.691 187.218 99.5565 176.81 99.5565ZM105.191 199.557V138.803C105.161 136.552 105.583 134.319 106.43 132.234C107.277 130.149 108.534 128.255 110.125 126.664C111.717 125.072 113.611 123.816 115.696 122.968C117.78 122.121 120.014 121.7 122.264 121.729H176.81C179.06 121.7 181.294 122.121 183.378 122.968C185.463 123.816 187.357 125.072 188.949 126.664C190.54 128.255 191.797 130.149 192.644 132.234C193.491 134.319 193.913 136.552 193.883 138.803V199.557H171.71V272.949C171.71 274.125 171.243 275.253 170.411 276.085C169.579 276.916 168.452 277.384 167.275 277.384H131.799C130.623 277.384 129.495 276.916 128.663 276.085C127.831 275.253 127.364 274.125 127.364 272.949V199.557H105.191Z" fill="#8E8E8E"/>
<path d="M149.808 136.84C154.288 136.84 158.096 137.576 161.232 139.048C164.432 140.456 166.832 142.376 168.432 144.808C170.032 147.24 170.832 149.928 170.832 152.872C170.832 155.496 170.352 157.736 169.392 159.592C168.496 161.448 167.408 162.952 166.128 164.104C164.848 165.256 163.152 166.6 161.04 168.136C158.48 169.864 156.592 171.432 155.376 172.84C154.16 174.184 153.552 175.944 153.552 178.12V180.52H139.728V177.544C139.728 174.536 140.176 172.008 141.072 169.96C142.032 167.848 143.152 166.216 144.432 165.064C145.776 163.848 147.44 162.536 149.424 161.128C151.344 159.848 152.752 158.728 153.648 157.768C154.544 156.808 154.992 155.624 154.992 154.216C154.992 152.488 154.384 151.144 153.168 150.184C152.016 149.224 150.384 148.744 148.272 148.744C144.24 148.744 140.496 150.696 137.04 154.6L127.344 147.112C133.168 140.264 140.656 136.84 149.808 136.84ZM146.832 189.256C149.2 189.256 151.216 190.12 152.88 191.848C154.608 193.512 155.472 195.528 155.472 197.896C155.472 200.328 154.608 202.408 152.88 204.136C151.216 205.8 149.2 206.632 146.832 206.632C144.464 206.632 142.416 205.8 140.688 204.136C139.024 202.408 138.192 200.328 138.192 197.896C138.192 195.528 139.024 193.512 140.688 191.848C142.416 190.12 144.464 189.256 146.832 189.256Z" fill="#8E8E8E"/>
</svg>