<svg width="65" height="65" viewBox="0 0 65 65" fill="none" xmlns="http://www.w3.org/2000/svg">
<path fill-rule="evenodd" clip-rule="evenodd" d="M0 32.5C0 14.5507 14.5507 0 32.5 0C50.4491 0 65 14.5507 65 32.5C65 50.4491 50.4491 65 32.5 65C14.5507 65 0 50.4491 0 32.5ZM32.4997 13C25.32 13 19.4997 18.8203 19.4997 26C19.4997 33.1796 25.32 39 32.4997 39C39.6792 39 45.4997 33.1796 45.4997 26C45.4997 18.8203 39.6792 13 32.4997 13ZM49.1124 45.4916C51.5752 47.0776 51.455 50.5346 49.2122 52.4186C44.693 56.2139 38.8638 58.5 32.5003 58.5C26.1791 58.5 20.3845 56.2442 15.8781 52.4934C13.6153 50.61 13.4954 47.1354 15.9689 45.539C16.7389 45.0421 17.5775 44.6066 18.4876 44.2315C22.1493 42.7219 26.8261 42.25 32.5 42.25C38.2025 42.25 42.9058 42.6917 46.577 44.185C47.4942 44.5581 48.3385 44.9933 49.1124 45.4916Z" fill="#8E8E8E"/>
</svg>
