<svg width="66" height="48" viewBox="0 0 66 48" fill="none" xmlns="http://www.w3.org/2000/svg">
<path fill-rule="evenodd" clip-rule="evenodd" d="M26.3618 32.5342V14.0152C32.9361 17.1087 38.0279 20.0971 44.0499 23.319C39.083 26.0735 32.9361 29.1642 26.3618 32.5342ZM63.0003 4.80483C61.8663 3.31072 59.9334 2.14769 57.8757 1.76264C51.8274 0.614078 14.0943 0.610811 8.0492 1.76264C6.39906 2.07199 4.92966 2.81971 3.6674 3.98144C-1.6512 8.91791 0.0153984 35.3906 1.29739 39.6788C1.83647 41.5349 2.53338 42.8735 3.41105 43.7522C4.54182 44.9139 6.09004 45.7138 7.86838 46.0725C12.8484 47.1026 38.5045 47.6786 57.7705 46.2272C59.5455 45.9179 61.1167 45.0922 62.356 43.8811C67.2736 38.9644 66.9383 11.005 63.0003 4.80483Z" fill="#870000"/>
</svg>
