<svg width="16" height="9" viewBox="0 0 16 9" fill="none" xmlns="http://www.w3.org/2000/svg">
<path d="M8.31641 8.8165C8.61235 8.80805 8.86601 8.69813 9.09431 8.46983L15.5289 1.89148C15.7149 1.697 15.8164 1.4687 15.8164 1.18967C15.8164 0.623156 15.3767 0.183472 14.8102 0.183472C14.5396 0.183472 14.286 0.293393 14.0915 0.487869L8.31641 6.4067L2.54132 0.487869C2.34685 0.293393 2.10164 0.183472 1.82261 0.183472C1.25609 0.183472 0.816406 0.623156 0.816406 1.18967C0.816406 1.46025 0.917872 1.697 1.10389 1.89148L7.54696 8.46983C7.7668 8.70658 8.02046 8.8165 8.31641 8.8165Z" fill="#333333"/>
</svg>
