<svg width="9" height="15" viewBox="0 0 9 15" fill="none" xmlns="http://www.w3.org/2000/svg">
<path d="M8.63303 7.5C8.62458 7.20406 8.51466 6.95039 8.28636 6.7221L1.708 0.287486C1.51353 0.101466 1.28523 0 1.0062 0C0.439684 0 0 0.439684 0 1.0062C0 1.27678 0.109921 1.53044 0.304397 1.72492L6.22322 7.5L0.304397 13.2751C0.109921 13.4696 0 13.7148 0 13.9938C0 14.5603 0.439684 15 1.0062 15C1.27678 15 1.51353 14.8985 1.708 14.7125L8.28636 8.26945C8.52311 8.04961 8.63303 7.79594 8.63303 7.5Z" fill="#333333"/>
</svg>
