<svg width="26" height="26" viewBox="0 0 26 26" fill="none" xmlns="http://www.w3.org/2000/svg">
<path d="M13.167 25.6666C20.0706 25.6666 25.667 20.0702 25.667 13.1666C25.667 6.26307 20.0706 0.666626 13.167 0.666626C6.26343 0.666626 0.666992 6.26307 0.666992 13.1666C0.666992 20.0702 6.26343 25.6666 13.167 25.6666Z" fill="#292561"/>
<path d="M18.167 9.41663C18.2123 10.3375 17.9579 11.2483 17.4418 12.0123C16.9257 12.7763 16.1757 13.3524 15.3045 13.6541C14.417 14.0791 14.417 14.1416 14.417 14.4166C14.417 14.7481 14.2853 15.0661 14.0509 15.3005C13.8165 15.5349 13.4985 15.6666 13.167 15.6666C12.8355 15.6666 12.5175 15.5349 12.2831 15.3005C12.0487 15.0661 11.917 14.7481 11.917 14.4166C11.9345 13.7348 12.166 13.0758 12.5788 12.5329C12.9916 11.99 13.5647 11.5908 14.217 11.3916C15.1795 10.9291 15.667 10.6666 15.667 9.41663C15.667 9.1997 15.6105 8.98651 15.5031 8.79803C15.3957 8.60955 15.2411 8.45226 15.0545 8.34163C14.4837 8.00492 13.8295 7.83596 13.167 7.85413C12.3045 7.85413 10.667 8.17913 10.667 9.41663C10.667 9.74815 10.5353 10.0661 10.3009 10.3005C10.0665 10.5349 9.74851 10.6666 9.41699 10.6666C9.08547 10.6666 8.76753 10.5349 8.53311 10.3005C8.29869 10.0661 8.16699 9.74815 8.16699 9.41663C8.16699 7.06663 10.267 5.35413 13.167 5.35413C16.067 5.35413 18.167 7.06663 18.167 9.41663ZM13.167 17.5416C12.7962 17.5416 12.4336 17.6516 12.1253 17.8576C11.817 18.0636 11.5766 18.3565 11.4347 18.6991C11.2928 19.0417 11.2557 19.4187 11.328 19.7824C11.4004 20.1461 11.5789 20.4802 11.8412 20.7425C12.1034 21.0047 12.4375 21.1833 12.8012 21.2556C13.1649 21.3279 13.5419 21.2908 13.8845 21.1489C14.2271 21.007 14.52 20.7667 14.726 20.4583C14.932 20.15 15.042 19.7875 15.042 19.4166C15.042 18.9193 14.8444 18.4424 14.4928 18.0908C14.1412 17.7392 13.6643 17.5416 13.167 17.5416Z" fill="#E8D12A"/>
</svg>
