<svg width="432" height="318" viewBox="0 0 432 318" fill="none" xmlns="http://www.w3.org/2000/svg">
<mask id="path-1-inside-1_151_2403" fill="white">
<path d="M235.211 121.665C235.763 121.665 236.211 122.113 236.211 122.665L236.211 243.653C236.211 244.205 235.763 244.653 235.211 244.653L12.3689 244.653C11.8166 244.653 11.3689 244.205 11.3689 243.653L11.3689 122.665C11.3689 122.113 11.8166 121.665 12.3689 121.665L235.211 121.665Z"/>
</mask>
<path d="M235.211 121.665C235.763 121.665 236.211 122.113 236.211 122.665L236.211 243.653C236.211 244.205 235.763 244.653 235.211 244.653L12.3689 244.653C11.8166 244.653 11.3689 244.205 11.3689 243.653L11.3689 122.665C11.3689 122.113 11.8166 121.665 12.3689 121.665L235.211 121.665Z" fill="#E8A736"/>
<path d="M236.211 121.665L236.211 244.653L236.211 121.665ZM12.3689 244.653C11.2643 244.653 10.3689 243.757 10.3689 242.653L10.3689 123.665C10.3689 122.561 11.2643 121.665 12.3689 121.665C12.3689 121.665 12.3689 122.113 12.3689 122.665L12.3689 243.653C12.3689 244.205 12.3689 244.653 12.3689 244.653ZM11.3689 121.665L236.211 121.665L11.3689 121.665ZM236.211 244.653L11.3689 244.653L236.211 244.653Z" fill="#BD892E" mask="url(#path-1-inside-1_151_2403)"/>
<rect x="420.632" y="134.89" width="91.249" height="44.2105" rx="1" transform="rotate(90 420.632 134.89)" fill="#E8A736"/>
<mask id="path-4-inside-2_151_2403" fill="white">
<path d="M431 112.408C431.552 112.408 432 112.856 432 113.408L432 243.653C432 244.205 431.552 244.653 431 244.653H421.632C421.079 244.653 420.632 244.205 420.632 243.653L420.632 113.408C420.632 112.856 421.079 112.408 421.632 112.408H431Z"/>
</mask>
<path d="M431 112.408C431.552 112.408 432 112.856 432 113.408L432 243.653C432 244.205 431.552 244.653 431 244.653H421.632C421.079 244.653 420.632 244.205 420.632 243.653L420.632 113.408C420.632 112.856 421.079 112.408 421.632 112.408H431Z" fill="#E8A736"/>
<path d="M432 112.408L432 244.653L432 112.408ZM421.632 244.653C420.527 244.653 419.632 243.758 419.632 242.653L419.632 114.408C419.632 113.304 420.527 112.408 421.632 112.408C421.632 112.408 421.632 112.856 421.632 113.408L421.632 243.653C421.632 244.205 421.632 244.653 421.632 244.653ZM420.632 112.408H432H420.632ZM432 244.653H420.632H432Z" fill="url(#paint0_linear_151_2403)" mask="url(#path-4-inside-2_151_2403)"/>
<rect x="205.395" y="280.859" width="36.0286" height="38.1579" rx="0.5" transform="rotate(90 205.395 280.859)" fill="#E8A736" stroke="url(#paint1_linear_151_2403)"/>
<path d="M208.685 262.345C208.961 262.345 209.185 262.569 209.185 262.845V297.873C209.185 298.149 208.961 298.373 208.685 298.373H162.685C162.408 298.373 162.185 298.149 162.185 297.873V262.845C162.185 262.569 162.408 262.345 162.685 262.345H208.685Z" fill="#E8A736" stroke="url(#paint2_linear_151_2403)"/>
<rect x="205.395" y="50.7529" width="36.0286" height="38.1579" rx="0.5" transform="rotate(90 205.395 50.7529)" fill="#E8A736" stroke="url(#paint3_linear_151_2403)"/>
<rect x="210.447" y="67.9448" width="38.6735" height="47" rx="0.5" transform="rotate(90 210.447 67.9448)" fill="#E8A736" stroke="url(#paint4_linear_151_2403)"/>
<rect x="10.8682" y="97.0387" width="170.918" height="10.3684" rx="0.5" transform="rotate(90 10.8682 97.0387)" fill="#E8A736" stroke="url(#paint5_linear_151_2403)"/>
<path d="M367.992 118.118C377.236 124.109 382.816 134.375 382.816 145.391L382.816 215.997C382.816 226.852 377.397 236.991 368.37 243.021L329.922 268.706C324.578 272.276 318.296 274.182 311.869 274.182L69.0533 274.182C51.104 274.182 36.5533 259.631 36.5533 241.682L36.5533 120.669C36.5533 102.72 51.1041 88.1693 69.0533 88.1693L312.172 88.1693C318.445 88.1693 324.584 89.9847 329.848 93.3963L367.992 118.118Z" fill="#E8A736" stroke="url(#paint6_linear_151_2403)" stroke-width="15"/>
<rect x="327.211" y="109.473" width="139.437" height="270.421" rx="45" transform="rotate(90 327.211 109.473)" fill="#E8A736" stroke="url(#paint7_linear_151_2403)" stroke-width="10"/>
<path d="M378.315 142.647C376.766 142.647 375.394 141.312 375.394 139.518C375.394 137.725 376.766 136.39 378.315 136.39C379.864 136.39 381.236 137.725 381.236 139.518C381.236 141.312 379.864 142.647 378.315 142.647Z" fill="#D9D9D9" stroke="#E6E6E6" stroke-width="3"/>
<path d="M378.315 228.606C376.766 228.606 375.394 227.271 375.394 225.477C375.394 223.684 376.766 222.349 378.315 222.349C379.864 222.349 381.236 223.684 381.236 225.477C381.236 227.271 379.864 228.606 378.315 228.606Z" fill="#D9D9D9" stroke="#E6E6E6" stroke-width="3"/>
<path d="M351.789 253.733C350.24 253.733 348.868 252.397 348.868 250.604C348.868 248.811 350.24 247.475 351.789 247.475C353.338 247.475 354.71 248.811 354.71 250.604C354.71 252.397 353.338 253.733 351.789 253.733Z" fill="#D9D9D9" stroke="#E6E6E6" stroke-width="3"/>
<path d="M351.789 112.231C350.24 112.231 348.868 110.895 348.868 109.102C348.868 107.309 350.24 105.973 351.789 105.973C353.338 105.973 354.71 107.309 354.71 109.102C354.71 110.895 353.338 112.231 351.789 112.231Z" fill="#D9D9D9" stroke="#E6E6E6" stroke-width="3"/>
<path d="M318.947 95.0388C317.398 95.0388 316.026 93.7036 316.026 91.9102C316.026 90.1167 317.398 88.7816 318.947 88.7816C320.496 88.7816 321.868 90.1167 321.868 91.9102C321.868 93.7036 320.496 95.0388 318.947 95.0388Z" fill="#D9D9D9" stroke="#E6E6E6" stroke-width="3"/>
<path d="M318.947 272.247C317.398 272.247 316.026 270.912 316.026 269.118C316.026 267.325 317.398 265.99 318.947 265.99C320.496 265.99 321.868 267.325 321.868 269.118C321.868 270.912 320.496 272.247 318.947 272.247Z" fill="#D9D9D9" stroke="#E6E6E6" stroke-width="3"/>
<path d="M283.576 273.569C282.027 273.569 280.655 272.234 280.655 270.441C280.655 268.647 282.027 267.312 283.576 267.312C285.125 267.312 286.497 268.647 286.497 270.441C286.497 272.234 285.125 273.569 283.576 273.569Z" fill="#D9D9D9" stroke="#E6E6E6" stroke-width="3"/>
<path d="M283.576 93.7162C282.027 93.7162 280.655 92.3811 280.655 90.5877C280.655 88.7942 282.027 87.4591 283.576 87.4591C285.125 87.4591 286.497 88.7942 286.497 90.5877C286.497 92.3811 285.125 93.7162 283.576 93.7162Z" fill="#D9D9D9" stroke="#E6E6E6" stroke-width="3"/>
<path d="M244.418 93.7162C242.869 93.7162 241.497 92.3811 241.497 90.5877C241.497 88.7942 242.869 87.4591 244.418 87.4591C245.967 87.4591 247.339 88.7942 247.339 90.5877C247.339 92.3811 245.967 93.7162 244.418 93.7162Z" fill="#D9D9D9" stroke="#E6E6E6" stroke-width="3"/>
<path d="M244.418 273.569C242.869 273.569 241.497 272.234 241.497 270.441C241.497 268.647 242.869 267.312 244.418 267.312C245.967 267.312 247.339 268.647 247.339 270.441C247.339 272.234 245.967 273.569 244.418 273.569Z" fill="#D9D9D9" stroke="#E6E6E6" stroke-width="3"/>
<path d="M200.207 273.569C198.658 273.569 197.286 272.234 197.286 270.441C197.286 268.647 198.658 267.312 200.207 267.312C201.756 267.312 203.128 268.647 203.128 270.441C203.128 272.234 201.756 273.569 200.207 273.569Z" fill="#D9D9D9" stroke="#E6E6E6" stroke-width="3"/>
<path d="M203.997 93.7162C202.448 93.7162 201.076 92.3811 201.076 90.5877C201.076 88.7942 202.448 87.4591 203.997 87.4591C205.546 87.4591 206.918 88.7942 206.918 90.5877C206.918 92.3811 205.546 93.7162 203.997 93.7162Z" fill="#D9D9D9" stroke="#E6E6E6" stroke-width="3"/>
<path d="M163.576 93.7162C162.027 93.7162 160.655 92.3811 160.655 90.5877C160.655 88.7942 162.027 87.4591 163.576 87.4591C165.125 87.4591 166.497 88.7942 166.497 90.5877C166.497 92.3811 165.125 93.7162 163.576 93.7162Z" fill="#D9D9D9" stroke="#E6E6E6" stroke-width="3"/>
<path d="M163.576 273.569C162.027 273.569 160.655 272.234 160.655 270.441C160.655 268.647 162.027 267.312 163.576 267.312C165.125 267.312 166.497 268.647 166.497 270.441C166.497 272.234 165.125 273.569 163.576 273.569Z" fill="#D9D9D9" stroke="#E6E6E6" stroke-width="3"/>
<path d="M119.365 273.569C117.816 273.569 116.444 272.234 116.444 270.441C116.444 268.647 117.816 267.312 119.365 267.312C120.914 267.312 122.286 268.647 122.286 270.441C122.286 272.234 120.914 273.569 119.365 273.569Z" fill="#D9D9D9" stroke="#E6E6E6" stroke-width="3"/>
<path d="M119.365 93.7162C117.816 93.7162 116.444 92.3811 116.444 90.5877C116.444 88.7942 117.816 87.4591 119.365 87.4591C120.914 87.4591 122.286 88.7942 122.286 90.5877C122.286 92.3811 120.914 93.7162 119.365 93.7162Z" fill="#D9D9D9" stroke="#E6E6E6" stroke-width="3"/>
<path d="M75.1551 95.0386C73.606 95.0386 72.2341 93.7035 72.2341 91.9101C72.2341 90.1166 73.606 88.7815 75.1551 88.7815C76.7043 88.7815 78.0762 90.1166 78.0762 91.9101C78.0762 93.7035 76.7043 95.0386 75.1551 95.0386Z" fill="#D9D9D9" stroke="#E6E6E6" stroke-width="3"/>
<path d="M41.0497 124.133C39.5005 124.133 38.1286 122.798 38.1286 121.004C38.1286 119.211 39.5005 117.875 41.0497 117.875C42.5988 117.875 43.9707 119.211 43.9707 121.004C43.9707 122.798 42.5988 124.133 41.0497 124.133Z" fill="#D9D9D9" stroke="#E6E6E6" stroke-width="3"/>
<path d="M41.0497 244.475C39.5005 244.475 38.1286 243.14 38.1286 241.347C38.1286 239.553 39.5005 238.218 41.0497 238.218C42.5988 238.218 43.9707 239.553 43.9707 241.347C43.9707 243.14 42.5988 244.475 41.0497 244.475Z" fill="#D9D9D9" stroke="#E6E6E6" stroke-width="3"/>
<path d="M37.2394 163.874C35.6904 163.898 34.2997 162.584 34.2742 160.791C34.2487 158.998 35.6015 157.642 37.1505 157.618C38.6996 157.593 40.0902 158.907 40.1157 160.7C40.1412 162.494 38.7884 163.85 37.2394 163.874Z" fill="#D9D9D9" stroke="#E6E6E6" stroke-width="3"/>
<path d="M37.2394 204.87C35.6904 204.894 34.2997 203.58 34.2742 201.787C34.2487 199.994 35.6015 198.638 37.1505 198.613C38.6996 198.589 40.0902 199.903 40.1157 201.696C40.1412 203.489 38.7884 204.846 37.2394 204.87Z" fill="#D9D9D9" stroke="#E6E6E6" stroke-width="3"/>
<path d="M342.926 185.033C341.377 185.057 339.986 183.744 339.961 181.95C339.935 180.157 341.288 178.801 342.837 178.777C344.386 178.753 345.777 180.066 345.802 181.86C345.828 183.653 344.475 185.009 342.926 185.033Z" fill="#D9D9D9" stroke="#E6E6E6" stroke-width="3"/>
<path d="M380.821 185.033C379.272 185.057 377.882 183.744 377.856 181.95C377.831 180.157 379.184 178.801 380.733 178.777C382.282 178.753 383.672 180.066 383.698 181.86C383.723 183.653 382.37 185.009 380.821 185.033Z" fill="#D9D9D9" stroke="#E6E6E6" stroke-width="3"/>
<path d="M75.1551 273.569C73.606 273.569 72.2341 272.234 72.2341 270.441C72.2341 268.647 73.606 267.312 75.1551 267.312C76.7043 267.312 78.0762 268.647 78.0762 270.441C78.0762 272.234 76.7043 273.569 75.1551 273.569Z" fill="#D9D9D9" stroke="#E6E6E6" stroke-width="3"/>
<path d="M179.131 178.531C179.131 210.634 154.29 236.541 123.789 236.541C93.2889 236.541 68.4473 210.634 68.4473 178.531C68.4473 146.427 93.2889 120.52 123.789 120.52C154.29 120.52 179.131 146.427 179.131 178.531Z" fill="url(#paint8_radial_151_2403)" stroke="#4D4545" stroke-width="3"/>
<path d="M260.21 120.52C290.711 120.52 315.552 146.427 315.552 178.531C315.552 210.634 290.711 236.541 260.21 236.541C229.71 236.541 204.868 210.634 204.868 178.531C204.868 146.427 229.71 120.52 260.21 120.52Z" fill="url(#paint9_radial_151_2403)" stroke="#4D4545" stroke-width="3"/>
<path d="M165.912 160.366H80.2077C76.8267 160.366 74.0859 163.229 74.0859 166.761V192.34C74.0859 195.872 76.8267 198.735 80.2077 198.735H165.912C169.293 198.735 172.034 195.872 172.034 192.34V166.761C172.034 163.229 169.293 160.366 165.912 160.366Z" fill="#333333"/>
<path d="M302.44 159.648H216.735C213.354 159.648 210.613 162.512 210.613 166.043V191.623C210.613 195.155 213.354 198.018 216.735 198.018H302.44C305.821 198.018 308.562 195.155 308.562 191.623V166.043C308.562 162.512 305.821 159.648 302.44 159.648Z" fill="#333333"/>
<path d="M119.54 201.532C120.17 201.532 120.675 201.747 121.055 202.177C121.445 202.607 121.64 203.192 121.64 203.932V209.722H119.51V204.292C119.51 203.512 119.25 203.122 118.73 203.122C118.45 203.122 118.205 203.212 117.995 203.392C117.785 203.572 117.57 203.852 117.35 204.232V209.722H115.22V204.292C115.22 203.512 114.96 203.122 114.44 203.122C114.16 203.122 113.915 203.217 113.705 203.407C113.495 203.587 113.285 203.862 113.075 204.232V209.722H110.945V201.772H112.79L112.955 202.762C113.255 202.362 113.59 202.057 113.96 201.847C114.34 201.637 114.775 201.532 115.265 201.532C115.715 201.532 116.105 201.647 116.435 201.877C116.765 202.097 117.005 202.412 117.155 202.822C117.485 202.392 117.84 202.072 118.22 201.862C118.61 201.642 119.05 201.532 119.54 201.532ZM126.884 199.417C127.574 199.417 128.164 199.532 128.654 199.762C129.154 199.982 129.529 200.287 129.779 200.677C130.039 201.067 130.169 201.502 130.169 201.982C130.169 202.592 129.994 203.102 129.644 203.512C129.294 203.912 128.809 204.197 128.189 204.367C128.869 204.437 129.424 204.682 129.854 205.102C130.284 205.522 130.499 206.107 130.499 206.857C130.499 207.437 130.349 207.962 130.049 208.432C129.759 208.902 129.329 209.277 128.759 209.557C128.189 209.827 127.514 209.962 126.734 209.962C125.304 209.962 124.184 209.462 123.374 208.462L124.529 207.352C124.869 207.692 125.204 207.937 125.534 208.087C125.864 208.237 126.224 208.312 126.614 208.312C127.134 208.312 127.544 208.172 127.844 207.892C128.154 207.612 128.309 207.222 128.309 206.722C128.309 206.182 128.164 205.792 127.874 205.552C127.584 205.312 127.149 205.192 126.569 205.192H125.744L125.999 203.692H126.554C127.024 203.692 127.399 203.567 127.679 203.317C127.959 203.067 128.099 202.717 128.099 202.267C128.099 201.877 127.969 201.572 127.709 201.352C127.459 201.132 127.114 201.022 126.674 201.022C126.294 201.022 125.944 201.092 125.624 201.232C125.304 201.372 124.989 201.592 124.679 201.892L123.614 200.737C124.544 199.857 125.634 199.417 126.884 199.417Z" fill="black"/>
<path d="M255.96 202.855C256.59 202.855 257.095 203.07 257.475 203.5C257.865 203.93 258.06 204.515 258.06 205.255V211.045H255.93V205.615C255.93 204.835 255.67 204.445 255.15 204.445C254.87 204.445 254.625 204.535 254.415 204.715C254.205 204.895 253.99 205.175 253.77 205.555V211.045H251.64V205.615C251.64 204.835 251.38 204.445 250.86 204.445C250.58 204.445 250.335 204.54 250.125 204.73C249.915 204.91 249.705 205.185 249.495 205.555V211.045H247.365V203.095H249.21L249.375 204.085C249.675 203.685 250.01 203.38 250.38 203.17C250.76 202.96 251.195 202.855 251.685 202.855C252.135 202.855 252.525 202.97 252.855 203.2C253.185 203.42 253.425 203.735 253.575 204.145C253.905 203.715 254.26 203.395 254.64 203.185C255.03 202.965 255.47 202.855 255.96 202.855ZM263.305 200.74C263.995 200.74 264.585 200.855 265.075 201.085C265.575 201.305 265.95 201.61 266.2 202C266.46 202.39 266.59 202.825 266.59 203.305C266.59 203.915 266.415 204.425 266.065 204.835C265.715 205.235 265.23 205.52 264.61 205.69C265.29 205.76 265.845 206.005 266.275 206.425C266.705 206.845 266.92 207.43 266.92 208.18C266.92 208.76 266.77 209.285 266.47 209.755C266.18 210.225 265.75 210.6 265.18 210.88C264.61 211.15 263.935 211.285 263.155 211.285C261.725 211.285 260.605 210.785 259.795 209.785L260.95 208.675C261.29 209.015 261.625 209.26 261.955 209.41C262.285 209.56 262.645 209.635 263.035 209.635C263.555 209.635 263.965 209.495 264.265 209.215C264.575 208.935 264.73 208.545 264.73 208.045C264.73 207.505 264.585 207.115 264.295 206.875C264.005 206.635 263.57 206.515 262.99 206.515H262.165L262.42 205.015H262.975C263.445 205.015 263.82 204.89 264.1 204.64C264.38 204.39 264.52 204.04 264.52 203.59C264.52 203.2 264.39 202.895 264.13 202.675C263.88 202.455 263.535 202.345 263.095 202.345C262.715 202.345 262.365 202.415 262.045 202.555C261.725 202.695 261.41 202.915 261.1 203.215L260.035 202.06C260.965 201.18 262.055 200.74 263.305 200.74Z" fill="black"/>
<path d="M203.369 59.5102C203.369 92.3768 228.818 119.02 260.211 119.02C291.604 119.02 317.053 92.3768 317.053 59.5102C317.053 26.6436 291.604 0 260.211 0C228.818 0 203.369 26.6436 203.369 59.5102Z" fill="url(#paint10_linear_151_2403)"/>
<path d="M233.413 39.1265V34.7915H230.653V39.1265H227.878V28.7015H230.653V32.6465H233.413V28.7015H236.188V39.1265H233.413ZM240.435 31.1315V39.1265H237.765V31.1315H240.435ZM239.1 26.8265C239.55 26.8265 239.915 26.9665 240.195 27.2465C240.485 27.5265 240.63 27.8765 240.63 28.2965C240.63 28.7165 240.485 29.0665 240.195 29.3465C239.915 29.6265 239.55 29.7665 239.1 29.7665C238.65 29.7665 238.28 29.6265 237.99 29.3465C237.71 29.0665 237.57 28.7165 237.57 28.2965C237.57 27.8765 237.71 27.5265 237.99 27.2465C238.28 26.9665 238.65 26.8265 239.1 26.8265ZM249.633 31.6415C249.083 31.8715 248.318 31.9865 247.338 31.9865C247.868 32.1965 248.253 32.4665 248.493 32.7965C248.743 33.1165 248.868 33.5365 248.868 34.0565C248.868 34.5665 248.728 35.0215 248.448 35.4215C248.168 35.8215 247.768 36.1365 247.248 36.3665C246.728 36.5965 246.118 36.7115 245.418 36.7115C245.068 36.7115 244.773 36.6865 244.533 36.6365C244.383 36.7365 244.308 36.8615 244.308 37.0115C244.308 37.1415 244.363 37.2465 244.473 37.3265C244.593 37.4065 244.818 37.4465 245.148 37.4465H246.318C246.948 37.4465 247.503 37.5465 247.983 37.7465C248.463 37.9465 248.828 38.2265 249.078 38.5865C249.338 38.9365 249.468 39.3365 249.468 39.7865C249.468 40.6365 249.098 41.2965 248.358 41.7665C247.618 42.2465 246.553 42.4865 245.163 42.4865C244.153 42.4865 243.358 42.3815 242.778 42.1715C242.208 41.9615 241.808 41.6665 241.578 41.2865C241.348 40.9065 241.233 40.4365 241.233 39.8765H243.618C243.618 40.1065 243.658 40.2815 243.738 40.4015C243.828 40.5315 243.988 40.6215 244.218 40.6715C244.448 40.7315 244.788 40.7615 245.238 40.7615C245.828 40.7615 246.233 40.6915 246.453 40.5515C246.673 40.4115 246.783 40.2215 246.783 39.9815C246.783 39.7815 246.703 39.6165 246.543 39.4865C246.383 39.3565 246.133 39.2915 245.793 39.2915H244.653C243.783 39.2915 243.133 39.1465 242.703 38.8565C242.283 38.5565 242.073 38.1715 242.073 37.7015C242.073 37.4015 242.163 37.1115 242.343 36.8315C242.523 36.5515 242.763 36.3215 243.063 36.1415C242.543 35.8615 242.168 35.5365 241.938 35.1665C241.708 34.7965 241.593 34.3515 241.593 33.8315C241.593 32.9015 241.923 32.1765 242.583 31.6565C243.243 31.1265 244.123 30.8615 245.223 30.8615C246.003 30.8915 246.683 30.8065 247.263 30.6065C247.843 30.3965 248.433 30.1015 249.033 29.7215L249.633 31.6415ZM245.298 32.6015C244.978 32.6015 244.723 32.7065 244.533 32.9165C244.343 33.1165 244.248 33.4015 244.248 33.7715C244.248 34.1715 244.343 34.4765 244.533 34.6865C244.723 34.8965 244.983 35.0015 245.313 35.0015C246.013 35.0015 246.363 34.5815 246.363 33.7415C246.363 33.3515 246.273 33.0665 246.093 32.8865C245.923 32.6965 245.658 32.6015 245.298 32.6015ZM255.357 30.8615C256.037 30.8615 256.572 31.0765 256.962 31.5065C257.352 31.9265 257.547 32.5115 257.547 33.2615V39.1265H254.877V33.7415C254.877 33.3915 254.822 33.1515 254.712 33.0215C254.612 32.8815 254.462 32.8115 254.262 32.8115C253.852 32.8115 253.457 33.1165 253.077 33.7265V39.1265H250.407V27.9815L253.077 27.7115V31.9115C253.407 31.5515 253.757 31.2865 254.127 31.1165C254.497 30.9465 254.907 30.8615 255.357 30.8615ZM262.478 39.1265V28.7015H268.883L268.598 30.6665H265.253V33.1715H268.193V35.1365H265.253V39.1265H262.478ZM271.876 39.3965C271.126 39.3965 270.546 39.1865 270.136 38.7665C269.726 38.3465 269.521 37.7415 269.521 36.9515V27.9815L272.191 27.7115V36.8615C272.191 37.1515 272.321 37.2965 272.581 37.2965C272.691 37.2965 272.806 37.2765 272.926 37.2365L273.421 39.1265C273.011 39.3065 272.496 39.3965 271.876 39.3965ZM277.605 30.8615C278.855 30.8615 279.835 31.2365 280.545 31.9865C281.255 32.7365 281.61 33.7865 281.61 35.1365C281.61 35.9965 281.45 36.7465 281.13 37.3865C280.81 38.0265 280.345 38.5215 279.735 38.8715C279.135 39.2215 278.425 39.3965 277.605 39.3965C276.355 39.3965 275.375 39.0215 274.665 38.2715C273.955 37.5215 273.6 36.4715 273.6 35.1215C273.6 34.2615 273.76 33.5115 274.08 32.8715C274.4 32.2315 274.86 31.7365 275.46 31.3865C276.07 31.0365 276.785 30.8615 277.605 30.8615ZM277.605 32.7965C277.175 32.7965 276.855 32.9865 276.645 33.3665C276.445 33.7365 276.345 34.3215 276.345 35.1215C276.345 35.9515 276.445 36.5515 276.645 36.9215C276.855 37.2815 277.175 37.4615 277.605 37.4615C278.035 37.4615 278.35 37.2765 278.55 36.9065C278.76 36.5265 278.865 35.9365 278.865 35.1365C278.865 34.3165 278.76 33.7215 278.55 33.3515C278.35 32.9815 278.035 32.7965 277.605 32.7965ZM293.37 31.1315L291.75 39.1265H288.63L287.67 33.5165L286.725 39.1265H283.635L281.985 31.1315H284.67L285.33 37.1015L286.485 31.1315H289.02L289.98 37.1015L290.805 31.1315H293.37Z" fill="white"/>
<path d="M66.9476 59.5102C66.9476 92.3768 92.3967 119.02 123.79 119.02C155.183 119.02 180.632 92.3768 180.632 59.5102C180.632 26.6436 155.183 0 123.79 0C92.3967 0 66.9476 26.6436 66.9476 59.5102Z" fill="url(#paint11_linear_151_2403)"/>
<path d="M95.9359 29.3644V37.6294H99.9409L99.6409 39.7894H93.1609V29.3644H95.9359ZM104.099 31.5244C105.349 31.5244 106.329 31.8994 107.039 32.6494C107.749 33.3994 108.104 34.4494 108.104 35.7994C108.104 36.6594 107.944 37.4094 107.624 38.0494C107.304 38.6894 106.839 39.1844 106.229 39.5344C105.629 39.8844 104.919 40.0594 104.099 40.0594C102.849 40.0594 101.869 39.6844 101.159 38.9344C100.449 38.1844 100.094 37.1344 100.094 35.7844C100.094 34.9244 100.254 34.1744 100.574 33.5344C100.894 32.8944 101.354 32.3994 101.954 32.0494C102.564 31.6994 103.279 31.5244 104.099 31.5244ZM104.099 33.4594C103.669 33.4594 103.349 33.6494 103.139 34.0294C102.939 34.3994 102.839 34.9844 102.839 35.7844C102.839 36.6144 102.939 37.2144 103.139 37.5844C103.349 37.9444 103.669 38.1244 104.099 38.1244C104.529 38.1244 104.844 37.9394 105.044 37.5694C105.254 37.1894 105.359 36.5994 105.359 35.7994C105.359 34.9794 105.254 34.3844 105.044 34.0144C104.844 33.6444 104.529 33.4594 104.099 33.4594ZM119.864 31.7944L118.244 39.7894H115.124L114.164 34.1794L113.219 39.7894H110.129L108.479 31.7944H111.164L111.824 37.7644L112.979 31.7944H115.514L116.474 37.7644L117.299 31.7944H119.864ZM124.069 39.7894V29.3644H130.474L130.189 31.3294H126.844V33.8344H129.784V35.7994H126.844V39.7894H124.069ZM133.468 40.0594C132.718 40.0594 132.138 39.8494 131.728 39.4294C131.318 39.0094 131.113 38.4044 131.113 37.6144V28.6444L133.783 28.3744V37.5244C133.783 37.8144 133.913 37.9594 134.173 37.9594C134.283 37.9594 134.398 37.9394 134.518 37.8994L135.013 39.7894C134.603 39.9694 134.088 40.0594 133.468 40.0594ZM139.197 31.5244C140.447 31.5244 141.427 31.8994 142.137 32.6494C142.847 33.3994 143.202 34.4494 143.202 35.7994C143.202 36.6594 143.042 37.4094 142.722 38.0494C142.402 38.6894 141.937 39.1844 141.327 39.5344C140.727 39.8844 140.017 40.0594 139.197 40.0594C137.947 40.0594 136.967 39.6844 136.257 38.9344C135.547 38.1844 135.192 37.1344 135.192 35.7844C135.192 34.9244 135.352 34.1744 135.672 33.5344C135.992 32.8944 136.452 32.3994 137.052 32.0494C137.662 31.6994 138.377 31.5244 139.197 31.5244ZM139.197 33.4594C138.767 33.4594 138.447 33.6494 138.237 34.0294C138.037 34.3994 137.937 34.9844 137.937 35.7844C137.937 36.6144 138.037 37.2144 138.237 37.5844C138.447 37.9444 138.767 38.1244 139.197 38.1244C139.627 38.1244 139.942 37.9394 140.142 37.5694C140.352 37.1894 140.457 36.5994 140.457 35.7994C140.457 34.9794 140.352 34.3844 140.142 34.0144C139.942 33.6444 139.627 33.4594 139.197 33.4594ZM154.962 31.7944L153.342 39.7894H150.222L149.262 34.1794L148.317 39.7894H145.227L143.577 31.7944H146.262L146.922 37.7644L148.077 31.7944H150.612L151.572 37.7644L152.397 31.7944H154.962Z" fill="white"/>
<path d="M311.828 306.603L310.46 306.963L311.351 308.061L310.937 308.367L310.172 307.179L309.407 308.367L308.993 308.07L309.884 306.972L308.516 306.603L308.669 306.135L309.992 306.648L309.911 305.217H310.424L310.352 306.648L311.666 306.135L311.828 306.603ZM317.731 305.577C318.073 305.577 318.361 305.625 318.595 305.721C318.835 305.811 319.075 305.952 319.315 306.144L319.027 306.504C318.817 306.336 318.616 306.216 318.424 306.144C318.232 306.072 318.013 306.036 317.767 306.036C317.185 306.036 316.711 306.258 316.345 306.702C315.985 307.146 315.805 307.83 315.805 308.754C315.805 309.354 315.889 309.858 316.057 310.266C316.225 310.674 316.453 310.977 316.741 311.175C317.035 311.367 317.368 311.463 317.74 311.463C318.034 311.463 318.283 311.421 318.487 311.337C318.691 311.247 318.898 311.118 319.108 310.95L319.387 311.301C318.937 311.727 318.382 311.94 317.722 311.94C317.242 311.94 316.813 311.817 316.435 311.571C316.063 311.325 315.769 310.965 315.553 310.491C315.343 310.011 315.238 309.432 315.238 308.754C315.238 308.076 315.349 307.5 315.571 307.026C315.793 306.546 316.09 306.186 316.462 305.946C316.84 305.7 317.263 305.577 317.731 305.577ZM323.849 311.841H323.399L323.372 311.004C323 311.628 322.487 311.94 321.833 311.94C321.407 311.94 321.077 311.817 320.843 311.571C320.615 311.319 320.501 310.962 320.501 310.5V307.134H321.023V310.446C321.023 310.812 321.098 311.082 321.248 311.256C321.404 311.424 321.638 311.508 321.95 311.508C322.496 311.508 322.955 311.187 323.327 310.545V307.134H323.849V311.841ZM327.585 307.035C327.771 307.035 327.927 307.053 328.053 307.089L327.954 307.584C327.822 307.548 327.684 307.53 327.54 307.53C327.222 307.53 326.964 307.647 326.766 307.881C326.574 308.109 326.412 308.469 326.28 308.961V311.841H325.758V307.134H326.208L326.253 308.187C326.379 307.797 326.55 307.509 326.766 307.323C326.988 307.131 327.261 307.035 327.585 307.035ZM330.942 307.035C331.128 307.035 331.284 307.053 331.41 307.089L331.311 307.584C331.179 307.548 331.041 307.53 330.897 307.53C330.579 307.53 330.321 307.647 330.123 307.881C329.931 308.109 329.769 308.469 329.637 308.961V311.841H329.115V307.134H329.565L329.61 308.187C329.736 307.797 329.907 307.509 330.123 307.323C330.345 307.131 330.618 307.035 330.942 307.035ZM335.539 309.312C335.539 309.444 335.533 309.57 335.521 309.69H332.38C332.41 310.302 332.554 310.758 332.812 311.058C333.076 311.352 333.421 311.499 333.847 311.499C334.093 311.499 334.309 311.463 334.495 311.391C334.687 311.313 334.894 311.193 335.116 311.031L335.359 311.364C335.125 311.556 334.885 311.7 334.639 311.796C334.393 311.892 334.12 311.94 333.82 311.94C333.196 311.94 332.707 311.727 332.353 311.301C331.999 310.875 331.822 310.284 331.822 309.528C331.822 309.03 331.897 308.595 332.047 308.223C332.203 307.845 332.422 307.554 332.704 307.35C332.992 307.14 333.325 307.035 333.703 307.035C334.303 307.035 334.759 307.239 335.071 307.647C335.383 308.049 335.539 308.604 335.539 309.312ZM335.026 309.15C335.026 308.622 334.915 308.211 334.693 307.917C334.477 307.617 334.153 307.467 333.721 307.467C333.331 307.467 333.016 307.617 332.776 307.917C332.536 308.217 332.404 308.673 332.38 309.285H335.026V309.15ZM339.104 307.035C339.53 307.035 339.854 307.161 340.076 307.413C340.304 307.665 340.418 308.019 340.418 308.475V311.841H339.896V308.547C339.896 308.169 339.821 307.893 339.671 307.719C339.521 307.545 339.299 307.458 339.005 307.458C338.705 307.458 338.438 307.542 338.204 307.71C337.976 307.872 337.757 308.112 337.547 308.43V311.841H337.025V307.134H337.475L337.529 307.935C337.721 307.653 337.949 307.434 338.213 307.278C338.477 307.116 338.774 307.035 339.104 307.035ZM344.423 311.643C344.123 311.841 343.793 311.94 343.433 311.94C343.073 311.94 342.791 311.835 342.587 311.625C342.383 311.409 342.281 311.1 342.281 310.698V307.557H341.489V307.134H342.281V306.009L342.803 305.946V307.134H344.018L343.955 307.557H342.803V310.671C342.803 310.947 342.86 311.154 342.974 311.292C343.088 311.424 343.262 311.49 343.496 311.49C343.736 311.49 343.976 311.421 344.216 311.283L344.423 311.643ZM348.897 305.757C349.233 305.757 349.524 305.823 349.77 305.955C350.022 306.087 350.214 306.267 350.346 306.495C350.478 306.717 350.544 306.969 350.544 307.251C350.544 307.641 350.433 307.959 350.211 308.205C349.995 308.445 349.713 308.595 349.365 308.655C349.755 308.673 350.076 308.814 350.328 309.078C350.586 309.336 350.715 309.693 350.715 310.149C350.715 310.497 350.637 310.806 350.481 311.076C350.325 311.346 350.1 311.559 349.806 311.715C349.518 311.865 349.185 311.94 348.807 311.94C348.111 311.94 347.538 311.682 347.088 311.166L347.421 310.869C347.625 311.091 347.835 311.253 348.051 311.355C348.273 311.451 348.519 311.499 348.789 311.499C349.221 311.499 349.56 311.376 349.806 311.13C350.052 310.884 350.175 310.56 350.175 310.158C350.175 309.318 349.725 308.898 348.825 308.898H348.429L348.501 308.475H348.789C349.131 308.475 349.422 308.373 349.662 308.169C349.902 307.959 350.022 307.662 350.022 307.278C350.022 306.948 349.917 306.687 349.707 306.495C349.497 306.297 349.218 306.198 348.87 306.198C348.618 306.198 348.387 306.243 348.177 306.333C347.967 306.417 347.754 306.558 347.538 306.756L347.259 306.432C347.499 306.204 347.751 306.036 348.015 305.928C348.279 305.814 348.573 305.757 348.897 305.757ZM353.76 305.757C354.378 305.757 354.846 306.021 355.164 306.549C355.482 307.071 355.641 307.839 355.641 308.853C355.641 309.861 355.479 310.629 355.155 311.157C354.837 311.679 354.372 311.94 353.76 311.94C353.142 311.94 352.674 311.679 352.356 311.157C352.038 310.629 351.879 309.858 351.879 308.844C351.879 307.83 352.038 307.062 352.356 306.54C352.674 306.018 353.142 305.757 353.76 305.757ZM353.76 306.189C352.866 306.189 352.419 307.074 352.419 308.844C352.419 310.62 352.866 311.508 353.76 311.508C354.198 311.508 354.528 311.292 354.75 310.86C354.978 310.428 355.092 309.759 355.092 308.853C355.092 307.947 354.978 307.278 354.75 306.846C354.528 306.408 354.198 306.189 353.76 306.189ZM356.845 309.249V308.799H359.23V309.249H356.845ZM364.157 305.217V311.841H363.707L363.644 311.121C363.32 311.667 362.849 311.94 362.231 311.94C361.685 311.94 361.253 311.724 360.935 311.292C360.623 310.854 360.467 310.26 360.467 309.51C360.467 309.024 360.539 308.595 360.683 308.223C360.833 307.851 361.046 307.56 361.322 307.35C361.604 307.14 361.934 307.035 362.312 307.035C362.846 307.035 363.287 307.248 363.635 307.674V305.154L364.157 305.217ZM362.312 311.508C362.612 311.508 362.864 311.436 363.068 311.292C363.278 311.148 363.467 310.929 363.635 310.635V308.178C363.299 307.704 362.888 307.467 362.402 307.467C361.976 307.467 361.637 307.644 361.385 307.998C361.139 308.352 361.019 308.853 361.025 309.501C361.025 310.149 361.139 310.647 361.367 310.995C361.595 311.337 361.91 311.508 362.312 311.508ZM368.989 310.797C368.989 311.043 369.019 311.22 369.079 311.328C369.145 311.436 369.247 311.517 369.385 311.571L369.268 311.94C369.052 311.898 368.884 311.817 368.764 311.697C368.65 311.577 368.575 311.394 368.539 311.148C368.215 311.676 367.726 311.94 367.072 311.94C366.622 311.94 366.265 311.814 366.001 311.562C365.743 311.304 365.614 310.962 365.614 310.536C365.614 310.05 365.785 309.675 366.127 309.411C366.475 309.147 366.955 309.015 367.567 309.015H368.467V308.556C368.467 308.178 368.383 307.905 368.215 307.737C368.047 307.563 367.768 307.476 367.378 307.476C367.018 307.476 366.592 307.566 366.1 307.746L365.965 307.35C366.493 307.14 366.988 307.035 367.45 307.035C368.476 307.035 368.989 307.533 368.989 308.529V310.797ZM367.162 311.517C367.726 311.517 368.161 311.241 368.467 310.689V309.393H367.648C367.168 309.393 366.802 309.486 366.55 309.672C366.298 309.858 366.172 310.137 366.172 310.509C366.172 310.833 366.259 311.082 366.433 311.256C366.607 311.43 366.85 311.517 367.162 311.517ZM372.261 311.859C372.135 312.225 371.997 312.525 371.847 312.759C371.697 312.993 371.502 313.185 371.262 313.335C371.022 313.491 370.713 313.605 370.335 313.677L370.281 313.272C370.593 313.194 370.836 313.098 371.01 312.984C371.19 312.87 371.331 312.726 371.433 312.552C371.541 312.384 371.649 312.147 371.757 311.841H371.577L369.939 307.134H370.506L371.928 311.454L373.323 307.134H373.872L372.261 311.859ZM379.299 309.078H378.066V311.841H377.526V305.676H379.02C380.484 305.676 381.216 306.234 381.216 307.35C381.216 307.794 381.099 308.148 380.865 308.412C380.631 308.676 380.289 308.865 379.839 308.979L381.531 311.841H380.892L379.299 309.078ZM379.092 308.637C380.124 308.637 380.64 308.208 380.64 307.35C380.64 306.93 380.511 306.621 380.253 306.423C379.995 306.219 379.578 306.117 379.002 306.117H378.066V308.637H379.092ZM384.278 307.035C384.902 307.035 385.388 307.251 385.736 307.683C386.09 308.109 386.267 308.706 386.267 309.474C386.267 310.236 386.087 310.839 385.727 311.283C385.373 311.721 384.887 311.94 384.269 311.94C383.645 311.94 383.156 311.724 382.802 311.292C382.454 310.854 382.28 310.254 382.28 309.492C382.28 308.994 382.361 308.559 382.523 308.187C382.685 307.815 382.916 307.53 383.216 307.332C383.516 307.134 383.87 307.035 384.278 307.035ZM384.278 307.476C383.822 307.476 383.468 307.647 383.216 307.989C382.964 308.331 382.838 308.832 382.838 309.492C382.838 310.146 382.961 310.644 383.207 310.986C383.459 311.328 383.813 311.499 384.269 311.499C384.725 311.499 385.079 311.328 385.331 310.986C385.589 310.644 385.718 310.14 385.718 309.474C385.718 308.82 385.592 308.325 385.34 307.989C385.094 307.647 384.74 307.476 384.278 307.476ZM388.583 311.94C388.325 311.94 388.121 311.865 387.971 311.715C387.827 311.565 387.755 311.343 387.755 311.049V305.217L388.277 305.154V311.031C388.277 311.337 388.403 311.49 388.655 311.49C388.781 311.49 388.889 311.469 388.979 311.427L389.123 311.814C388.955 311.898 388.775 311.94 388.583 311.94ZM391.14 311.94C390.882 311.94 390.678 311.865 390.528 311.715C390.384 311.565 390.312 311.343 390.312 311.049V305.217L390.834 305.154V311.031C390.834 311.337 390.96 311.49 391.212 311.49C391.338 311.49 391.446 311.469 391.536 311.427L391.68 311.814C391.512 311.898 391.332 311.94 391.14 311.94ZM393.437 307.134V311.841H392.915V307.134H393.437ZM393.167 305.064C393.287 305.064 393.383 305.1 393.455 305.172C393.527 305.244 393.563 305.334 393.563 305.442C393.563 305.55 393.527 305.64 393.455 305.712C393.383 305.784 393.287 305.82 393.167 305.82C393.053 305.82 392.96 305.784 392.888 305.712C392.816 305.64 392.78 305.55 392.78 305.442C392.78 305.334 392.816 305.244 392.888 305.172C392.96 305.1 393.053 305.064 393.167 305.064ZM397.42 307.035C397.846 307.035 398.17 307.161 398.392 307.413C398.62 307.665 398.734 308.019 398.734 308.475V311.841H398.212V308.547C398.212 308.169 398.137 307.893 397.987 307.719C397.837 307.545 397.615 307.458 397.321 307.458C397.021 307.458 396.754 307.542 396.52 307.71C396.292 307.872 396.073 308.112 395.863 308.43V311.841H395.341V307.134H395.791L395.845 307.935C396.037 307.653 396.265 307.434 396.529 307.278C396.793 307.116 397.09 307.035 397.42 307.035ZM404.098 307.233C403.81 307.311 403.375 307.356 402.793 307.368C403.327 307.62 403.594 308.046 403.594 308.646C403.594 309.108 403.441 309.483 403.135 309.771C402.829 310.053 402.415 310.194 401.893 310.194C401.659 310.194 401.455 310.164 401.281 310.104C401.167 310.17 401.077 310.251 401.011 310.347C400.951 310.437 400.921 310.536 400.921 310.644C400.921 310.968 401.17 311.13 401.668 311.13H402.433C402.895 311.13 403.261 311.244 403.531 311.472C403.807 311.694 403.945 311.982 403.945 312.336C403.945 312.768 403.774 313.101 403.432 313.335C403.09 313.569 402.58 313.686 401.902 313.686C401.2 313.686 400.696 313.578 400.39 313.362C400.09 313.152 399.94 312.81 399.94 312.336H400.426C400.432 312.564 400.48 312.744 400.57 312.876C400.66 313.008 400.81 313.104 401.02 313.164C401.23 313.224 401.524 313.254 401.902 313.254C402.43 313.254 402.814 313.176 403.054 313.02C403.294 312.87 403.414 312.651 403.414 312.363C403.414 312.111 403.321 311.919 403.135 311.787C402.949 311.649 402.688 311.58 402.352 311.58H401.587C401.215 311.58 400.927 311.502 400.723 311.346C400.525 311.19 400.426 310.992 400.426 310.752C400.426 310.596 400.471 310.449 400.561 310.311C400.651 310.173 400.777 310.053 400.939 309.951C400.669 309.813 400.468 309.636 400.336 309.42C400.21 309.204 400.147 308.94 400.147 308.628C400.147 308.154 400.306 307.77 400.624 307.476C400.942 307.182 401.359 307.035 401.875 307.035C402.445 307.041 402.859 307.02 403.117 306.972C403.381 306.924 403.654 306.843 403.936 306.729L404.098 307.233ZM401.875 307.44C401.485 307.44 401.188 307.548 400.984 307.764C400.786 307.98 400.687 308.268 400.687 308.628C400.687 309 400.792 309.291 401.002 309.501C401.218 309.711 401.509 309.816 401.875 309.816C402.259 309.816 402.553 309.714 402.757 309.51C402.961 309.3 403.063 309.009 403.063 308.637C403.063 308.259 402.961 307.965 402.757 307.755C402.559 307.545 402.265 307.44 401.875 307.44Z" fill="#333333"/>
<defs>
<linearGradient id="paint0_linear_151_2403" x1="432" y1="183.856" x2="420.882" y2="183.846" gradientUnits="userSpaceOnUse">
<stop stop-color="#F4EFE5" stop-opacity="0.21"/>
<stop offset="1" stop-color="#D5982E"/>
</linearGradient>
<linearGradient id="paint1_linear_151_2403" x1="225.9" y1="280.359" x2="225.496" y2="318.65" gradientUnits="userSpaceOnUse">
<stop stop-color="#F4EFE5" stop-opacity="0.21"/>
<stop offset="1" stop-color="#D5982E"/>
</linearGradient>
<linearGradient id="paint2_linear_151_2403" x1="209.685" y1="281.85" x2="162.751" y2="281.244" gradientUnits="userSpaceOnUse">
<stop stop-color="#F4EFE5" stop-opacity="0.21"/>
<stop offset="1" stop-color="#D5982E"/>
</linearGradient>
<linearGradient id="paint3_linear_151_2403" x1="225.9" y1="50.2529" x2="225.496" y2="88.5433" gradientUnits="userSpaceOnUse">
<stop stop-color="#F4EFE5" stop-opacity="0.21"/>
<stop offset="1" stop-color="#D5982E"/>
</linearGradient>
<linearGradient id="paint4_linear_151_2403" x1="232.382" y1="67.4448" x2="231.816" y2="114.38" gradientUnits="userSpaceOnUse">
<stop stop-color="#F4EFE5" stop-opacity="0.21"/>
<stop offset="1" stop-color="#D5982E"/>
</linearGradient>
<linearGradient id="paint5_linear_151_2403" x1="104.25" y1="96.5387" x2="104.243" y2="107.656" gradientUnits="userSpaceOnUse">
<stop stop-color="#F4EFE5" stop-opacity="0.21"/>
<stop offset="1" stop-color="#D5982E"/>
</linearGradient>
<linearGradient id="paint6_linear_151_2403" x1="390.316" y1="189.27" x2="37.131" y2="182.943" gradientUnits="userSpaceOnUse">
<stop stop-color="#F4EFE5" stop-opacity="0.21"/>
<stop offset="1" stop-color="#D5982E"/>
</linearGradient>
<linearGradient id="paint7_linear_151_2403" x1="412.947" y1="104.473" x2="407.819" y2="378.616" gradientUnits="userSpaceOnUse">
<stop stop-color="#F4EFE5" stop-opacity="0.21"/>
<stop offset="1" stop-color="#D5982E"/>
</linearGradient>
<radialGradient id="paint8_radial_151_2403" cx="0" cy="0" r="1" gradientUnits="userSpaceOnUse" gradientTransform="translate(125.591 32.2593) rotate(90.652) scale(206.148 196.908)">
<stop stop-color="#AAAAAA"/>
<stop offset="1" stop-color="white"/>
</radialGradient>
<radialGradient id="paint9_radial_151_2403" cx="0" cy="0" r="1" gradientUnits="userSpaceOnUse" gradientTransform="translate(120.497 176.644) rotate(0.714614) scale(196.908 206.148)">
<stop stop-color="#AAAAAA"/>
<stop offset="1" stop-color="white"/>
</radialGradient>
<linearGradient id="paint10_linear_151_2403" x1="317.053" y1="59.5102" x2="203.369" y2="59.5102" gradientUnits="userSpaceOnUse">
<stop stop-color="#484848"/>
<stop offset="1"/>
</linearGradient>
<linearGradient id="paint11_linear_151_2403" x1="180.632" y1="59.5102" x2="66.9476" y2="59.5102" gradientUnits="userSpaceOnUse">
<stop stop-color="#484848"/>
<stop offset="1"/>
</linearGradient>
</defs>
</svg>
