<svg width="25" height="25" viewBox="0 0 25 25" fill="none" xmlns="http://www.w3.org/2000/svg">
<path d="M12.5 25C19.4036 25 25 19.4036 25 12.5C25 5.59644 19.4036 0 12.5 0C5.59644 0 0 5.59644 0 12.5C0 19.4036 5.59644 25 12.5 25Z" fill="#292561"/>
<path d="M12.5 18.75C12.1685 18.75 11.8505 18.6183 11.6161 18.3839C11.3817 18.1495 11.25 17.8315 11.25 17.5V12.5C11.25 12.1685 11.3817 11.8505 11.6161 11.6161C11.8505 11.3817 12.1685 11.25 12.5 11.25C12.8315 11.25 13.1495 11.3817 13.3839 11.6161C13.6183 11.8505 13.75 12.1685 13.75 12.5V17.5C13.75 17.8315 13.6183 18.1495 13.3839 18.3839C13.1495 18.6183 12.8315 18.75 12.5 18.75ZM12.5 5.625C12.1292 5.625 11.7666 5.73497 11.4583 5.94099C11.15 6.14702 10.9096 6.43986 10.7677 6.78247C10.6258 7.12508 10.5887 7.50208 10.661 7.86579C10.7334 8.22951 10.912 8.5636 11.1742 8.82583C11.4364 9.08805 11.7705 9.26663 12.1342 9.33897C12.4979 9.41132 12.8749 9.37419 13.2175 9.23227C13.5601 9.09036 13.853 8.85004 14.059 8.54169C14.265 8.23335 14.375 7.87084 14.375 7.5C14.375 7.00272 14.1775 6.52581 13.8258 6.17417C13.4742 5.82254 12.9973 5.625 12.5 5.625Z" fill="#E8D12A"/>
</svg>
