<svg width="340" height="340" viewBox="0 0 340 340" fill="none" xmlns="http://www.w3.org/2000/svg">
<path d="M340 170C340 147.675 335.603 125.569 327.06 104.944C318.516 84.3185 305.994 65.5778 290.208 49.7918C274.422 34.0059 255.682 21.4838 235.056 12.9405C214.431 4.39718 192.325 -7.09625e-07 170 0C147.675 7.09625e-07 125.569 4.39718 104.944 12.9405C84.3185 21.4838 65.5778 34.0059 49.7919 49.7919C34.0059 65.5778 21.4838 84.3185 12.9405 104.944C4.39722 125.569 3.05176e-05 147.675 3.05176e-05 170H58.804C58.804 155.398 61.6802 140.938 67.2683 127.447C72.8564 113.956 81.0471 101.698 91.3726 91.3725C101.698 81.047 113.956 72.8564 127.447 67.2683C140.938 61.6801 155.398 58.804 170 58.804C184.602 58.804 199.062 61.6801 212.553 67.2683C226.044 72.8564 238.302 81.047 248.627 91.3725C258.953 101.698 267.144 113.956 272.732 127.447C278.32 140.938 281.196 155.398 281.196 170H340Z" fill="#E8D12A"/>
<path d="M170 340C192.325 340 214.431 335.603 235.056 327.06C255.682 318.516 274.422 305.994 290.208 290.208C305.994 274.422 318.516 255.682 327.059 235.056C335.603 214.431 340 192.325 340 170L281.086 170C281.086 184.588 278.213 199.033 272.63 212.511C267.048 225.989 258.865 238.235 248.55 248.55C238.235 258.865 225.988 267.048 212.511 272.63C199.033 278.213 184.588 281.086 170 281.086L170 340Z" fill="#E8D12A"/>
<path d="M170 4.53794e-05C147.675 4.34278e-05 125.569 4.39723 104.944 12.9405C84.3185 21.4838 65.5778 34.0059 49.7919 49.7919C34.0059 65.5778 21.4838 84.3185 12.9405 104.944C4.3972 125.569 1.58377e-05 147.675 1.48619e-05 170C1.3886e-05 192.325 4.39719 214.431 12.9405 235.056C21.4838 255.682 34.0059 274.422 49.7919 290.208C65.5778 305.994 84.3185 318.516 104.944 327.06C125.569 335.603 147.675 340 170 340L170 281.214C155.395 281.214 140.933 278.337 127.44 272.748C113.947 267.159 101.687 258.967 91.3599 248.64C81.0328 238.313 72.8408 226.053 67.2518 212.56C61.6628 199.067 58.7861 184.605 58.7861 170C58.7861 155.395 61.6628 140.933 67.2518 127.44C72.8408 113.947 81.0328 101.687 91.3599 91.3599C101.687 81.0328 113.947 72.8408 127.44 67.2518C140.933 61.6628 155.395 58.7862 170 58.7862L170 4.53794e-05Z" fill="#292561"/>
<path d="M134.13 162.52V174.4H127.56V187H111.9L111.81 174.4H86.16V163.87L103.17 124.27L116.85 129.22L102.63 162.52H111.99L113.79 148.66H127.56V162.52H134.13ZM174.621 125.98V136.69L152.301 188.62L137.811 183.76L157.881 137.95H133.941V125.98H174.621ZM231.985 122.02L241.705 128.05L199.945 190.78L190.315 184.75L231.985 122.02ZM195.355 124.63C198.415 124.63 201.175 125.32 203.635 126.7C206.155 128.02 208.135 129.94 209.575 132.46C211.015 134.92 211.735 137.8 211.735 141.1C211.735 144.4 211.015 147.31 209.575 149.83C208.135 152.29 206.155 154.21 203.635 155.59C201.175 156.91 198.415 157.57 195.355 157.57C192.295 157.57 189.505 156.91 186.985 155.59C184.525 154.21 182.575 152.29 181.135 149.83C179.695 147.31 178.975 144.4 178.975 141.1C178.975 137.8 179.695 134.92 181.135 132.46C182.575 129.94 184.525 128.02 186.985 126.7C189.505 125.32 192.295 124.63 195.355 124.63ZM195.355 133.99C193.375 133.99 191.965 134.68 191.125 136.06C190.345 137.38 189.955 139.06 189.955 141.1C189.955 143.14 190.345 144.85 191.125 146.23C191.965 147.55 193.375 148.21 195.355 148.21C198.895 148.21 200.665 145.84 200.665 141.1C200.665 136.36 198.895 133.99 195.355 133.99ZM236.305 155.77C239.365 155.77 242.125 156.46 244.585 157.84C247.105 159.16 249.085 161.08 250.525 163.6C251.965 166.06 252.685 168.94 252.685 172.24C252.685 175.54 251.965 178.42 250.525 180.88C249.085 183.34 247.105 185.26 244.585 186.64C242.125 187.96 239.365 188.62 236.305 188.62C233.245 188.62 230.455 187.96 227.935 186.64C225.475 185.26 223.495 183.34 221.995 180.88C220.555 178.42 219.835 175.54 219.835 172.24C219.835 168.94 220.555 166.06 221.995 163.6C223.495 161.08 225.475 159.16 227.935 157.84C230.455 156.46 233.245 155.77 236.305 155.77ZM236.305 165.13C232.705 165.13 230.905 167.5 230.905 172.24C230.905 176.92 232.705 179.26 236.305 179.26C239.845 179.26 241.615 176.92 241.615 172.24C241.615 167.5 239.845 165.13 236.305 165.13Z" fill="#292561"/>
<path d="M126.799 236V214.182H132.072V231.717H141.149V236H126.799ZM147.179 236V214.182H162.392V218.464H152.452V222.939H161.614V227.232H152.452V231.717H162.392V236H147.179ZM173.714 236H168.046L175.408 214.182H182.429L189.79 236H184.122L178.998 219.679H178.828L173.714 236ZM172.958 227.413H184.804V231.419H172.958V227.413ZM195.439 236V214.182H200.713V223.408H201L208.213 214.182H214.424L206.689 223.919L214.562 236H208.255L202.822 227.424L200.713 230.087V236H195.439Z" fill="#292561"/>
</svg>
