<svg width="25" height="25" viewBox="0 0 25 25" fill="none" xmlns="http://www.w3.org/2000/svg">
<path d="M16.3646 13.8438C16.2678 13.7462 16.1526 13.6687 16.0256 13.6158C15.8987 13.5629 15.7625 13.5357 15.625 13.5357C15.4875 13.5357 15.3514 13.5629 15.2244 13.6158C15.0975 13.6687 14.9823 13.7462 14.8854 13.8438L13.5417 15.198V3.12504C13.5417 2.84877 13.432 2.58382 13.2366 2.38847C13.0412 2.19312 12.7763 2.08337 12.5 2.08337C12.2238 2.08337 11.9588 2.19312 11.7635 2.38847C11.5681 2.58382 11.4584 2.84877 11.4584 3.12504V15.198L10.1146 13.8438C9.91846 13.6476 9.65243 13.5374 9.37503 13.5374C9.09763 13.5374 8.8316 13.6476 8.63545 13.8438C8.4393 14.0399 8.3291 14.306 8.3291 14.5834C8.3291 14.8608 8.4393 15.1268 8.63545 15.323L11.7604 18.448C11.8573 18.5456 11.9725 18.6231 12.0994 18.676C12.2264 18.7289 12.3625 18.7561 12.5 18.7561C12.6375 18.7561 12.7737 18.7289 12.9006 18.676C13.0276 18.6231 13.1428 18.5456 13.2396 18.448L16.3646 15.323C16.4622 15.2261 16.5397 15.1109 16.5926 14.984C16.6455 14.857 16.6727 14.7209 16.6727 14.5834C16.6727 14.4459 16.6455 14.3097 16.5926 14.1828C16.5397 14.0558 16.4622 13.9406 16.3646 13.8438Z" fill="#292561"/>
<path d="M19.7917 22.9166H5.20833C4.6558 22.9166 4.12589 22.6971 3.73519 22.3064C3.34449 21.9157 3.125 21.3858 3.125 20.8333V17.7083C3.125 17.432 3.23475 17.1671 3.4301 16.9717C3.62545 16.7764 3.8904 16.6666 4.16667 16.6666C4.44293 16.6666 4.70789 16.7764 4.90324 16.9717C5.09859 17.1671 5.20833 17.432 5.20833 17.7083V20.8333H19.7917V17.7083C19.7917 17.432 19.9014 17.1671 20.0968 16.9717C20.2921 16.7764 20.5571 16.6666 20.8333 16.6666C21.1096 16.6666 21.3746 16.7764 21.5699 16.9717C21.7653 17.1671 21.875 17.432 21.875 17.7083V20.8333C21.875 21.3858 21.6555 21.9157 21.2648 22.3064C20.8741 22.6971 20.3442 22.9166 19.7917 22.9166Z" fill="#E8D12A"/>
</svg>
