<svg width="17" height="21" viewBox="0 0 17 21" fill="none" xmlns="http://www.w3.org/2000/svg">
<path d="M0.469093 2.46881L2.55243 0.385475C2.64976 0.288932 2.76519 0.212551 2.89211 0.160713C3.01902 0.108875 3.15492 0.0825988 3.29201 0.0833914H14.7503C15.3029 0.0833914 15.8328 0.302885 16.2235 0.693586C16.6142 1.08429 16.8337 1.61419 16.8337 2.16672V18.8334C16.8337 19.3859 16.6142 19.9158 16.2235 20.3065C15.8328 20.6972 15.3029 20.9167 14.7503 20.9167H2.25034C1.69781 20.9167 1.1679 20.6972 0.777204 20.3065C0.386503 19.9158 0.16701 19.3859 0.16701 18.8334V3.20839C0.166217 3.0713 0.192493 2.9354 0.244331 2.80849C0.296169 2.68157 0.37255 2.56614 0.469093 2.46881Z" fill="#292561"/>
<path d="M3.29201 15.7084C3.29201 15.4321 3.40176 15.1672 3.59711 14.9718C3.79246 14.7765 4.05741 14.6667 4.33368 14.6667H12.667C12.9433 14.6667 13.2082 14.7765 13.4036 14.9718C13.5989 15.1672 13.7087 15.4321 13.7087 15.7084C13.7087 15.9847 13.5989 16.2496 13.4036 16.445C13.2082 16.6403 12.9433 16.7501 12.667 16.7501H4.33368C4.05741 16.7501 3.79246 16.6403 3.59711 16.445C3.40176 16.2496 3.29201 15.9847 3.29201 15.7084ZM3.29201 11.5417C3.29201 11.2655 3.40176 11.0005 3.59711 10.8052C3.79246 10.6098 4.05741 10.5001 4.33368 10.5001H12.667C12.9433 10.5001 13.2082 10.6098 13.4036 10.8052C13.5989 11.0005 13.7087 11.2655 13.7087 11.5417C13.7087 11.818 13.5989 12.0829 13.4036 12.2783C13.2082 12.4736 12.9433 12.5834 12.667 12.5834H4.33368C4.05741 12.5834 3.79246 12.4736 3.59711 12.2783C3.40176 12.0829 3.29201 11.818 3.29201 11.5417ZM3.29201 7.37506C3.29201 7.09879 3.40176 6.83384 3.59711 6.63849C3.79246 6.44314 4.05741 6.33339 4.33368 6.33339H12.667C12.9433 6.33339 13.2082 6.44314 13.4036 6.63849C13.5989 6.83384 13.7087 7.09879 13.7087 7.37506C13.7087 7.65132 13.5989 7.91628 13.4036 8.11163C13.2082 8.30698 12.9433 8.41673 12.667 8.41673H4.33368C4.05741 8.41673 3.79246 8.30698 3.59711 8.11163C3.40176 7.91628 3.29201 7.65132 3.29201 7.37506ZM0.16701 3.20839H2.25034C2.52661 3.20839 2.79156 3.09864 2.98691 2.90329C3.18226 2.70794 3.29201 2.44299 3.29201 2.16672V0.0833914C3.15492 0.0825988 3.01902 0.108875 2.89211 0.160713C2.76519 0.212551 2.64976 0.288932 2.55243 0.385475L0.469093 2.46881C0.37255 2.56614 0.296169 2.68157 0.244331 2.80849C0.192493 2.9354 0.166217 3.0713 0.16701 3.20839Z" fill="#E8D12A"/>
</svg>
