<svg width="347" height="205" viewBox="0 0 347 205" fill="none" xmlns="http://www.w3.org/2000/svg">
    <path
        d="M64.3234 87.44C64.3234 88.3867 64.1234 89.2267 63.7234 89.96C63.3234 90.6933 62.7234 91.2733 61.9234 91.7C61.1368 92.1133 60.1768 92.32 59.0434 92.32C57.3368 92.32 56.0301 91.88 55.1234 91C54.2301 90.1067 53.7834 88.92 53.7834 87.44V78.16H56.7234V87.3C56.7234 88.2333 56.9101 88.9333 57.2834 89.4C57.6568 89.8533 58.2434 90.08 59.0434 90.08C59.8434 90.08 60.4301 89.8533 60.8034 89.4C61.1901 88.9333 61.3834 88.2333 61.3834 87.3V78.16H64.3234V87.44ZM78.5094 92H74.7294L70.3294 81.02C70.4494 81.9667 70.5427 82.86 70.6094 83.7C70.6894 84.5267 70.7294 85.5 70.7294 86.62V92H68.0694V78.16H71.7694L76.2494 89.16C75.9827 87.3733 75.8494 85.7333 75.8494 84.24V78.16H78.5094V92ZM86.0488 78.16C88.2088 78.16 89.9354 78.6533 91.2288 79.64C92.5354 80.6133 93.1888 82.4067 93.1888 85.02C93.1888 87.58 92.5488 89.3867 91.2688 90.44C90.0021 91.48 88.3754 92 86.3888 92H82.4288V78.16H86.0488ZM85.3688 80.32V89.84H86.5688C87.7021 89.84 88.5754 89.4933 89.1888 88.8C89.8154 88.0933 90.1288 86.8333 90.1288 85.02C90.1288 83.7667 89.9688 82.7933 89.6488 82.1C89.3421 81.4067 88.9288 80.94 88.4088 80.7C87.8888 80.4467 87.2554 80.32 86.5088 80.32H85.3688ZM104.697 78.16L104.377 80.3H99.3766V83.9H103.737V86.02H99.3766V89.84H104.737V92H96.4366V78.16H104.697ZM108.003 92V78.16H116.043L115.723 80.3H110.943V84.22H115.103V86.36H110.943V92H108.003ZM121.709 78.16V92H118.769V78.16H121.709ZM136.088 92H132.308L127.908 81.02C128.028 81.9667 128.121 82.86 128.188 83.7C128.268 84.5267 128.308 85.5 128.308 86.62V92H125.648V78.16H129.348L133.828 89.16C133.561 87.3733 133.428 85.7333 133.428 84.24V78.16H136.088V92ZM148.267 78.16L147.947 80.3H142.947V83.9H147.307V86.02H142.947V89.84H148.307V92H140.007V78.16H148.267ZM155.193 78.16C157.353 78.16 159.08 78.6533 160.373 79.64C161.68 80.6133 162.333 82.4067 162.333 85.02C162.333 87.58 161.693 89.3867 160.413 90.44C159.147 91.48 157.52 92 155.533 92H151.573V78.16H155.193ZM154.513 80.32V89.84H155.713C156.847 89.84 157.72 89.4933 158.333 88.8C158.96 88.0933 159.273 86.8333 159.273 85.02C159.273 83.7667 159.113 82.7933 158.793 82.1C158.487 81.4067 158.073 80.94 157.553 80.7C157.033 80.4467 156.4 80.32 155.653 80.32H154.513ZM184.884 92H182.004L181.704 86.38C181.611 84.7 181.564 83.2733 181.564 82.1C181.564 81.4733 181.571 81.02 181.584 80.74L179.244 90.52H176.464L173.964 80.72C174.017 81.5333 174.044 82.4467 174.044 83.46C174.044 84.54 174.017 85.5333 173.964 86.44L173.664 92H170.804L171.884 78.16H175.624L177.904 87.7L180.044 78.16H183.824L184.884 92ZM196.408 78.16L196.088 80.3H191.088V83.9H195.448V86.02H191.088V89.84H196.448V92H188.148V78.16H196.408ZM208.894 78.16L208.574 80.46H205.074V92H202.134V80.46H198.454V78.16H208.894ZM219.658 78.16L219.338 80.3H214.338V83.9H218.698V86.02H214.338V89.84H219.698V92H211.398V78.16H219.658ZM227.404 86.58H225.904V92H222.964V78.16H227.284C229.137 78.16 230.531 78.5067 231.464 79.2C232.397 79.88 232.864 80.9133 232.864 82.3C232.864 83.2067 232.637 83.9533 232.184 84.54C231.744 85.1267 231.057 85.6267 230.124 86.04L233.704 92H230.364L227.404 86.58ZM225.904 84.5H227.444C228.231 84.5 228.824 84.3267 229.224 83.98C229.624 83.62 229.824 83.06 229.824 82.3C229.824 81.5933 229.611 81.08 229.184 80.76C228.771 80.4267 228.117 80.26 227.224 80.26H225.904V84.5ZM251.312 78.16L250.992 80.46H247.492V92H244.552V80.46H240.872V78.16H251.312ZM264.095 78.16L259.655 86.78V92H256.715V86.8L252.275 78.16H255.495L258.255 84.44L260.995 78.16H264.095ZM270.756 78.16C272.556 78.16 273.949 78.5333 274.936 79.28C275.936 80.0267 276.436 81.14 276.436 82.62C276.436 84.1667 275.942 85.3333 274.956 86.12C273.969 86.8933 272.649 87.28 270.996 87.28H269.416V92H266.476V78.16H270.756ZM270.756 85.12C271.609 85.12 272.262 84.9267 272.716 84.54C273.169 84.1533 273.396 83.5133 273.396 82.62C273.396 81.06 272.502 80.28 270.716 80.28H269.416V85.12H270.756ZM287.63 78.16L287.31 80.3H282.31V83.9H286.67V86.02H282.31V89.84H287.67V92H279.37V78.16H287.63ZM44.7732 102.16C46.5732 102.16 47.9665 102.533 48.9532 103.28C49.9532 104.027 50.4532 105.14 50.4532 106.62C50.4532 108.167 49.9599 109.333 48.9732 110.12C47.9865 110.893 46.6665 111.28 45.0132 111.28H43.4332V116H40.4932V102.16H44.7732ZM44.7732 109.12C45.6265 109.12 46.2799 108.927 46.7332 108.54C47.1865 108.153 47.4132 107.513 47.4132 106.62C47.4132 105.06 46.5199 104.28 44.7332 104.28H43.4332V109.12H44.7732ZM56.3277 102.16V113.64H61.8077L61.4877 116H53.3877V102.16H56.3277ZM72.8235 102.16L72.5035 104.3H67.5035V107.9H71.8635V110.02H67.5035V113.84H72.8635V116H64.5635V102.16H72.8235ZM83.4499 116L82.6699 112.9H78.3299L77.5499 116H74.4899L78.7499 102.16H82.3299L86.5699 116H83.4499ZM78.8899 110.72H82.1099L80.4899 104.34L78.8899 110.72ZM93.0687 101.84C94.0687 101.84 94.9353 101.987 95.6687 102.28C96.4153 102.56 97.102 102.993 97.7287 103.58L96.3287 105.2C95.8353 104.8 95.342 104.507 94.8487 104.32C94.3553 104.133 93.8287 104.04 93.2687 104.04C92.6553 104.04 92.162 104.173 91.7887 104.44C91.4287 104.693 91.2487 105.06 91.2487 105.54C91.2487 105.873 91.322 106.147 91.4687 106.36C91.6287 106.573 91.902 106.773 92.2887 106.96C92.6753 107.147 93.2553 107.36 94.0287 107.6C95.402 108.04 96.4287 108.587 97.1087 109.24C97.7887 109.88 98.1287 110.8 98.1287 112C98.1287 112.853 97.9153 113.607 97.4887 114.26C97.062 114.9 96.442 115.407 95.6287 115.78C94.8153 116.14 93.862 116.32 92.7687 116.32C91.6753 116.32 90.702 116.147 89.8487 115.8C88.9953 115.453 88.262 114.98 87.6487 114.38L89.1487 112.72C89.682 113.173 90.2353 113.52 90.8087 113.76C91.382 113.987 92.0087 114.1 92.6887 114.1C93.4087 114.1 93.982 113.933 94.4087 113.6C94.8487 113.267 95.0687 112.8 95.0687 112.2C95.0687 111.827 94.9887 111.52 94.8287 111.28C94.682 111.027 94.422 110.8 94.0487 110.6C93.6753 110.4 93.1353 110.193 92.4287 109.98C90.922 109.513 89.842 108.953 89.1887 108.3C88.5487 107.647 88.2287 106.793 88.2287 105.74C88.2287 104.967 88.4353 104.287 88.8487 103.7C89.262 103.1 89.8353 102.64 90.5687 102.32C91.302 102 92.1353 101.84 93.0687 101.84ZM109.417 102.16L109.097 104.3H104.097V107.9H108.457V110.02H104.097V113.84H109.457V116H101.157V102.16H109.417ZM124.066 101.84C124.933 101.84 125.686 101.967 126.326 102.22C126.966 102.46 127.593 102.833 128.206 103.34L126.746 105.04C125.946 104.387 125.106 104.06 124.226 104.06C123.24 104.06 122.453 104.467 121.866 105.28C121.293 106.08 121.006 107.34 121.006 109.06C121.006 110.74 121.293 111.987 121.866 112.8C122.453 113.6 123.246 114 124.246 114C124.766 114 125.24 113.907 125.666 113.72C126.093 113.52 126.54 113.24 127.006 112.88L128.366 114.58C127.873 115.087 127.26 115.507 126.526 115.84C125.806 116.16 125.006 116.32 124.126 116.32C122.886 116.32 121.8 116.04 120.866 115.48C119.933 114.92 119.206 114.1 118.686 113.02C118.166 111.927 117.906 110.607 117.906 109.06C117.906 107.553 118.173 106.26 118.706 105.18C119.24 104.087 119.973 103.26 120.906 102.7C121.84 102.127 122.893 101.84 124.066 101.84ZM136.102 101.84C137.368 101.84 138.462 102.127 139.382 102.7C140.302 103.26 141.008 104.08 141.502 105.16C141.995 106.24 142.242 107.547 142.242 109.08C142.242 110.587 141.995 111.887 141.502 112.98C141.008 114.06 140.302 114.887 139.382 115.46C138.462 116.033 137.368 116.32 136.102 116.32C134.835 116.32 133.735 116.04 132.802 115.48C131.882 114.907 131.175 114.08 130.682 113C130.188 111.907 129.942 110.6 129.942 109.08C129.942 107.587 130.188 106.3 130.682 105.22C131.188 104.127 131.902 103.293 132.822 102.72C133.755 102.133 134.848 101.84 136.102 101.84ZM136.102 104.04C135.088 104.04 134.322 104.44 133.802 105.24C133.295 106.04 133.042 107.32 133.042 109.08C133.042 110.84 133.302 112.12 133.822 112.92C134.342 113.72 135.102 114.12 136.102 114.12C137.115 114.12 137.875 113.727 138.382 112.94C138.888 112.14 139.142 110.853 139.142 109.08C139.142 107.307 138.888 106.027 138.382 105.24C137.875 104.44 137.115 104.04 136.102 104.04ZM155.91 116H152.13L147.73 105.02C147.85 105.967 147.943 106.86 148.01 107.7C148.09 108.527 148.13 109.5 148.13 110.62V116H145.47V102.16H149.17L153.65 113.16C153.383 111.373 153.25 109.733 153.25 108.24V102.16H155.91V116ZM169.009 102.16L168.689 104.46H165.189V116H162.249V104.46H158.569V102.16H169.009ZM177.837 116L177.057 112.9H172.717L171.937 116H168.877L173.137 102.16H176.717L180.957 116H177.837ZM173.277 110.72H176.497L174.877 104.34L173.277 110.72ZM188.5 101.84C189.367 101.84 190.12 101.967 190.76 102.22C191.4 102.46 192.027 102.833 192.64 103.34L191.18 105.04C190.38 104.387 189.54 104.06 188.66 104.06C187.673 104.06 186.887 104.467 186.3 105.28C185.727 106.08 185.44 107.34 185.44 109.06C185.44 110.74 185.727 111.987 186.3 112.8C186.887 113.6 187.68 114 188.68 114C189.2 114 189.673 113.907 190.1 113.72C190.527 113.52 190.973 113.24 191.44 112.88L192.8 114.58C192.307 115.087 191.693 115.507 190.96 115.84C190.24 116.16 189.44 116.32 188.56 116.32C187.32 116.32 186.233 116.04 185.3 115.48C184.367 114.92 183.64 114.1 183.12 113.02C182.6 111.927 182.34 110.607 182.34 109.06C182.34 107.553 182.607 106.26 183.14 105.18C183.673 104.087 184.407 103.26 185.34 102.7C186.273 102.127 187.327 101.84 188.5 101.84ZM204.451 102.16L204.131 104.46H200.631V116H197.691V104.46H194.011V102.16H204.451ZM217.057 101.84C218.057 101.84 218.924 101.987 219.657 102.28C220.404 102.56 221.09 102.993 221.717 103.58L220.317 105.2C219.824 104.8 219.33 104.507 218.837 104.32C218.344 104.133 217.817 104.04 217.257 104.04C216.644 104.04 216.15 104.173 215.777 104.44C215.417 104.693 215.237 105.06 215.237 105.54C215.237 105.873 215.31 106.147 215.457 106.36C215.617 106.573 215.89 106.773 216.277 106.96C216.664 107.147 217.244 107.36 218.017 107.6C219.39 108.04 220.417 108.587 221.097 109.24C221.777 109.88 222.117 110.8 222.117 112C222.117 112.853 221.904 113.607 221.477 114.26C221.05 114.9 220.43 115.407 219.617 115.78C218.804 116.14 217.85 116.32 216.757 116.32C215.664 116.32 214.69 116.147 213.837 115.8C212.984 115.453 212.25 114.98 211.637 114.38L213.137 112.72C213.67 113.173 214.224 113.52 214.797 113.76C215.37 113.987 215.997 114.1 216.677 114.1C217.397 114.1 217.97 113.933 218.397 113.6C218.837 113.267 219.057 112.8 219.057 112.2C219.057 111.827 218.977 111.52 218.817 111.28C218.67 111.027 218.41 110.8 218.037 110.6C217.664 110.4 217.124 110.193 216.417 109.98C214.91 109.513 213.83 108.953 213.177 108.3C212.537 107.647 212.217 106.793 212.217 105.74C212.217 104.967 212.424 104.287 212.837 103.7C213.25 103.1 213.824 102.64 214.557 102.32C215.29 102 216.124 101.84 217.057 101.84ZM235.486 111.44C235.486 112.387 235.286 113.227 234.886 113.96C234.486 114.693 233.886 115.273 233.086 115.7C232.299 116.113 231.339 116.32 230.206 116.32C228.499 116.32 227.192 115.88 226.286 115C225.392 114.107 224.946 112.92 224.946 111.44V102.16H227.886V111.3C227.886 112.233 228.072 112.933 228.446 113.4C228.819 113.853 229.406 114.08 230.206 114.08C231.006 114.08 231.592 113.853 231.966 113.4C232.352 112.933 232.546 112.233 232.546 111.3V102.16H235.486V111.44ZM243.511 102.16C245.311 102.16 246.705 102.533 247.691 103.28C248.691 104.027 249.191 105.14 249.191 106.62C249.191 108.167 248.698 109.333 247.711 110.12C246.725 110.893 245.405 111.28 243.751 111.28H242.171V116H239.231V102.16H243.511ZM243.511 109.12C244.365 109.12 245.018 108.927 245.471 108.54C245.925 108.153 246.151 107.513 246.151 106.62C246.151 105.06 245.258 104.28 243.471 104.28H242.171V109.12H243.511ZM256.406 102.16C258.206 102.16 259.599 102.533 260.586 103.28C261.586 104.027 262.086 105.14 262.086 106.62C262.086 108.167 261.593 109.333 260.606 110.12C259.619 110.893 258.299 111.28 256.646 111.28H255.066V116H252.126V102.16H256.406ZM256.406 109.12C257.259 109.12 257.913 108.927 258.366 108.54C258.819 108.153 259.046 107.513 259.046 106.62C259.046 105.06 258.153 104.28 256.366 104.28H255.066V109.12H256.406ZM270.481 101.84C271.747 101.84 272.841 102.127 273.761 102.7C274.681 103.26 275.387 104.08 275.881 105.16C276.374 106.24 276.621 107.547 276.621 109.08C276.621 110.587 276.374 111.887 275.881 112.98C275.387 114.06 274.681 114.887 273.761 115.46C272.841 116.033 271.747 116.32 270.481 116.32C269.214 116.32 268.114 116.04 267.181 115.48C266.261 114.907 265.554 114.08 265.061 113C264.567 111.907 264.321 110.6 264.321 109.08C264.321 107.587 264.567 106.3 265.061 105.22C265.567 104.127 266.281 103.293 267.201 102.72C268.134 102.133 269.227 101.84 270.481 101.84ZM270.481 104.04C269.467 104.04 268.701 104.44 268.181 105.24C267.674 106.04 267.421 107.32 267.421 109.08C267.421 110.84 267.681 112.12 268.201 112.92C268.721 113.72 269.481 114.12 270.481 114.12C271.494 114.12 272.254 113.727 272.761 112.94C273.267 112.14 273.521 110.853 273.521 109.08C273.521 107.307 273.267 106.027 272.761 105.24C272.254 104.44 271.494 104.04 270.481 104.04ZM284.289 110.58H282.789V116H279.849V102.16H284.169C286.022 102.16 287.415 102.507 288.349 103.2C289.282 103.88 289.749 104.913 289.749 106.3C289.749 107.207 289.522 107.953 289.069 108.54C288.629 109.127 287.942 109.627 287.009 110.04L290.589 116H287.249L284.289 110.58ZM282.789 108.5H284.329C285.115 108.5 285.709 108.327 286.109 107.98C286.509 107.62 286.709 107.06 286.709 106.3C286.709 105.593 286.495 105.08 286.069 104.76C285.655 104.427 285.002 104.26 284.109 104.26H282.789V108.5ZM301.923 102.16L301.603 104.46H298.103V116H295.163V104.46H291.483V102.16H301.923Z"
        fill="#292561" />
</svg>