<svg width="25" height="25" viewBox="0 0 25 25" fill="none" xmlns="http://www.w3.org/2000/svg">
    <path
        d="M19.7917 2.08333C19.5154 2.08333 19.2504 2.19307 19.0551 2.38843C18.8597 2.58378 18.75 2.84873 18.75 3.12499V5.55208C17.4036 4.34779 15.7379 3.55813 13.9534 3.27807C12.1688 2.99801 10.3414 3.23948 8.69078 3.97344C7.0402 4.70739 5.63682 5.90258 4.64942 7.41524C3.66202 8.9279 3.13265 10.6936 3.125 12.5C3.125 12.7763 3.23475 13.0412 3.4301 13.2366C3.62545 13.4319 3.8904 13.5417 4.16667 13.5417C4.44293 13.5417 4.70789 13.4319 4.90324 13.2366C5.09859 13.0412 5.20833 12.7763 5.20833 12.5C5.21604 11.0724 5.64268 9.67839 6.43532 8.49099C7.22796 7.30359 8.35174 6.375 9.66727 5.82039C10.9828 5.26578 12.4322 5.10956 13.8357 5.3711C15.2392 5.63264 16.535 6.30044 17.5625 7.29166H14.5833C14.3071 7.29166 14.0421 7.40141 13.8468 7.59676C13.6514 7.79211 13.5417 8.05706 13.5417 8.33333C13.5417 8.6096 13.6514 8.87455 13.8468 9.0699C14.0421 9.26525 14.3071 9.37499 14.5833 9.37499H19.7917C20.0679 9.37499 20.3329 9.26525 20.5282 9.0699C20.7236 8.87455 20.8333 8.6096 20.8333 8.33333V3.12499C20.8333 2.84873 20.7236 2.58378 20.5282 2.38843C20.3329 2.19307 20.0679 2.08333 19.7917 2.08333Z"
        fill="#292561" />
    <path
        d="M20.8332 11.4583C20.5569 11.4583 20.292 11.5681 20.0966 11.7634C19.9012 11.9588 19.7915 12.2237 19.7915 12.5C19.7897 13.9339 19.3652 15.3355 18.571 16.5294C17.7768 17.7233 16.6482 18.6565 15.3264 19.2124C14.0046 19.7682 12.5482 19.922 11.1395 19.6545C9.73072 19.387 8.43212 18.71 7.40609 17.7083H10.4165C10.6928 17.7083 10.9577 17.5986 11.1531 17.4032C11.3484 17.2079 11.4582 16.9429 11.4582 16.6667C11.4582 16.3904 11.3484 16.1254 11.1531 15.9301C10.9577 15.7347 10.6928 15.625 10.4165 15.625H5.20817C4.9319 15.625 4.66695 15.7347 4.4716 15.9301C4.27625 16.1254 4.1665 16.3904 4.1665 16.6667V21.875C4.1665 22.1513 4.27625 22.4162 4.4716 22.6116C4.66695 22.8069 4.9319 22.9167 5.20817 22.9167C5.48444 22.9167 5.74939 22.8069 5.94474 22.6116C6.14009 22.4162 6.24984 22.1513 6.24984 21.875V19.4479C7.59624 20.6522 9.26189 21.4419 11.0464 21.7219C12.831 22.002 14.6585 21.7605 16.3091 21.0266C17.9596 20.2926 19.363 19.0974 20.3504 17.5848C21.3378 16.0721 21.8672 14.3064 21.8748 12.5C21.8748 12.2237 21.7651 11.9588 21.5697 11.7634C21.3744 11.5681 21.1094 11.4583 20.8332 11.4583Z"
        fill="#E8D12A" />
</svg>