<svg width="42" height="30" viewBox="0 0 42 30" fill="none" xmlns="http://www.w3.org/2000/svg">
<path d="M27.0833 0H14.5833C10.7156 5.76338e-08 7.00626 1.53645 4.27136 4.27136C1.53645 7.00626 0 10.7156 0 14.5833C0 18.4511 1.53645 22.1604 4.27136 24.8953C7.00626 27.6302 10.7156 29.1667 14.5833 29.1667H27.0833C30.9511 29.1667 34.6604 27.6302 37.3953 24.8953C40.1302 22.1604 41.6667 18.4511 41.6667 14.5833C41.6667 10.7156 40.1302 7.00626 37.3953 4.27136C34.6604 1.53645 30.9511 5.76338e-08 27.0833 0Z" fill="#292561"/>
<path d="M13.2917 22.5833C17.3187 22.5833 20.5833 19.3187 20.5833 15.2917C20.5833 11.2646 17.3187 8 13.2917 8C9.26459 8 6 11.2646 6 15.2917C6 19.3187 9.26459 22.5833 13.2917 22.5833Z" fill="#E8D12A"/>
</svg>
