<svg width="42" height="30" viewBox="0 0 42 30" fill="none" xmlns="http://www.w3.org/2000/svg">
<path d="M14.5837 29.1667H27.0837C30.9514 29.1667 34.6607 27.6303 37.3956 24.8954C40.1305 22.1605 41.667 18.4512 41.667 14.5834C41.667 10.7157 40.1305 7.00635 37.3956 4.27144C34.6607 1.53654 30.9514 8.25505e-05 27.0837 8.24928e-05H14.5837C10.7159 8.25505e-05 7.00659 1.53654 4.27169 4.27144C1.53678 7.00635 0.00032711 10.7157 0.00032711 14.5834C0.00032711 18.4512 1.53678 22.1605 4.27169 24.8954C7.00659 27.6303 10.7159 29.1667 14.5837 29.1667Z" fill="#838689"/>
<path d="M28.3753 6.58342C24.3482 6.58342 21.0837 9.84801 21.0837 13.8751C21.0837 17.9022 24.3482 21.1667 28.3753 21.1667C32.4024 21.1667 35.667 17.9022 35.667 13.8751C35.667 9.84801 32.4024 6.58342 28.3753 6.58342Z" fill="#E8D12A"/>
</svg>
