<svg width="55" height="55" viewBox="0 0 55 55" fill="none" xmlns="http://www.w3.org/2000/svg">
<path d="M15.9609 38.168C14.3881 36.6249 13.1405 34.7929 12.2893 32.7768C11.4381 30.7606 11 28.5996 11 26.4173C11 24.235 11.4381 22.0741 12.2893 20.0579C13.1405 18.0417 14.3881 16.2098 15.9609 14.6667M39.9141 14.6667C41.4869 16.2098 42.7346 18.0417 43.5858 20.0579C44.437 22.0741 44.8751 24.235 44.8751 26.4173C44.8751 28.5996 44.437 30.7606 43.5858 32.7768C42.7346 34.7929 41.4869 36.6249 39.9141 38.168M21.283 32.9445C19.519 31.2132 18.528 28.8654 18.528 26.4173C18.528 23.9693 19.519 21.6215 21.283 19.8902M34.592 19.8902C36.3561 21.6215 37.3471 23.9693 37.3471 26.4173C37.3471 28.8654 36.3561 31.2132 34.592 32.9445M29.8195 26.4173C29.8195 26.907 29.6212 27.3767 29.2683 27.723C28.9153 28.0692 28.4366 28.2638 27.9375 28.2638C27.4384 28.2638 26.9597 28.0692 26.6068 27.723C26.2539 27.3767 26.0556 26.907 26.0556 26.4173C26.0556 25.9276 26.2539 25.458 26.6068 25.1117C26.9597 24.7654 27.4384 24.5709 27.9375 24.5709C28.4366 24.5709 28.9153 24.7654 29.2683 25.1117C29.6212 25.458 29.8195 25.9276 29.8195 26.4173Z" fill="url(#paint0_radial_133_849)"/>
<path d="M15.9609 38.168C14.3881 36.6249 13.1405 34.7929 12.2893 32.7768C11.4381 30.7606 11 28.5996 11 26.4173C11 24.235 11.4381 22.0741 12.2893 20.0579C13.1405 18.0417 14.3881 16.2098 15.9609 14.6667M39.9141 14.6667C41.4869 16.2098 42.7346 18.0417 43.5858 20.0579C44.437 22.0741 44.8751 24.235 44.8751 26.4173C44.8751 28.5996 44.437 30.7606 43.5858 32.7768C42.7346 34.7929 41.4869 36.6249 39.9141 38.168M21.283 32.9445C19.519 31.2132 18.528 28.8654 18.528 26.4173C18.528 23.9693 19.519 21.6215 21.283 19.8902M34.592 19.8902C36.3561 21.6215 37.3471 23.9693 37.3471 26.4173C37.3471 28.8654 36.3561 31.2132 34.592 32.9445M29.8195 26.4173C29.8195 26.907 29.6212 27.3767 29.2683 27.723C28.9153 28.0692 28.4366 28.2638 27.9375 28.2638C27.4384 28.2638 26.9597 28.0692 26.6068 27.723C26.2539 27.3767 26.0556 26.907 26.0556 26.4173C26.0556 25.9276 26.2539 25.458 26.6068 25.1117C26.9597 24.7654 27.4384 24.5709 27.9375 24.5709C28.4366 24.5709 28.9153 24.7654 29.2683 25.1117C29.6212 25.458 29.8195 25.9276 29.8195 26.4173Z" fill="#A8A8A8"/>
<defs>
<radialGradient id="paint0_radial_133_849" cx="0" cy="0" r="1" gradientUnits="userSpaceOnUse" gradientTransform="translate(27.9375 26.4173) rotate(90) scale(11.7507 16.9375)">
<stop stop-color="#91294C" stop-opacity="0.49"/>
<stop offset="0.859375" stop-color="#91298C" stop-opacity="0.81"/>
</radialGradient>
</defs>
</svg>
