<svg width="55" height="55" viewBox="0 0 55 55" fill="none" xmlns="http://www.w3.org/2000/svg">
<path d="M27.5 23.6296V13.4445" stroke="#A8A8A8" stroke-width="3" stroke-linecap="round" stroke-linejoin="round"/>
<path d="M30.8956 16.8395L27.5005 13.4445L24.1055 16.8395" stroke="#A8A8A8" stroke-width="3" stroke-linecap="round" stroke-linejoin="round"/>
<path d="M12.2227 43.1508C14.769 43.1508 14.769 43.9996 17.3152 43.9996C19.8615 43.9996 19.8615 43.1508 22.4078 43.1508C24.9541 43.1508 24.9541 43.9996 27.5004 43.9996C30.0467 43.9996 30.0467 43.1508 32.593 43.1508C35.1393 43.1508 35.1393 43.9996 37.6856 43.9996C40.2319 43.9996 40.2319 43.1508 42.7782 43.1508" stroke="#A8A8A8" stroke-width="3" stroke-linecap="round" stroke-linejoin="round"/>
<path d="M12.2227 36.3611C14.769 36.3611 14.769 37.2099 17.3152 37.2099C19.8615 37.2099 19.8615 36.3611 22.4078 36.3611C24.9541 36.3611 24.9541 37.2099 27.5004 37.2099C30.0467 37.2099 30.0467 36.3611 32.593 36.3611C35.1393 36.3611 35.1393 37.2099 37.6856 37.2099C40.2319 37.2099 40.2319 36.3611 42.7782 36.3611" stroke="#A8A8A8" stroke-width="3" stroke-linecap="round" stroke-linejoin="round"/>
<path d="M12.2227 29.5715C14.769 29.5715 14.769 30.4202 17.3152 30.4202C19.8615 30.4202 19.8615 29.5715 22.4078 29.5715C24.9541 29.5715 24.9541 30.4202 27.5004 30.4202C30.0467 30.4202 30.0467 29.5715 32.593 29.5715C35.1393 29.5715 35.1393 30.4202 37.6856 30.4202C40.2319 30.4202 40.2319 29.5715 42.7782 29.5715" stroke="#A8A8A8" stroke-width="3" stroke-linecap="round" stroke-linejoin="round"/>
</svg>
